<?xml version="1.0" encoding="utf-8"?>
<!-- Generator: Adobe Illustrator 19.0.0, SVG Export Plug-In . SVG Version: 6.00 Build 0)  -->
<svg version="1.1" id="Слой_1" xmlns="http://www.w3.org/2000/svg" xmlns:xlink="http://www.w3.org/1999/xlink" x="0px" y="0px"
	 viewBox="-23 25 32 32" style="enable-background:new -23 25 32 32;" xml:space="preserve">
<style type="text/css">
	.st0{fill:#1083FF;}
	.st1{fill:none;}
</style>
<g>
	<path class="st0" d="M4,41c-2.8,0-5,2.2-5,5c0,0.6,0.1,1.3,0.4,1.8L-7,54.2V57h2.8l6.4-6.4C2.7,50.9,3.4,51,4,51c2.8,0,5-2.2,5-5
		S6.8,41,4,41z M4,45c-0.6,0-1-0.4-1-1s0.4-1,1-1s1,0.4,1,1S4.5,45,4,45z"/>
</g>
<g>
	<path class="st0" d="M-10,25c-6.1,0-11,4.9-11,11v3.2c-2,0.4-2,1.5-2,2.8v12c0,1.7,1.3,3,3,3h11v-2h-11c-0.6,0-1-0.4-1-1V42
		c0-0.6,0.4-1,1-1H0l0.3,0l0-0.1c0.2,0,0.3-0.1,0.4-0.2C0.9,40.5,1,40.3,1,40v-4C1,29.9-3.9,25-10,25z M-1,39h-18v-3
		c0-2.5,1-4.7,2.6-6.4C-14.7,28-12.5,27-10,27c2.5,0,4.7,1,6.4,2.6C-2,31.3-1,33.5-1,36V39z"/>
	<path class="st0" d="M-10,43c-1.7,0-3,1.3-3,3c0,1.3,0,2.4,2,2.8V52c0,0.6,0.4,1,1,1s1-0.4,1-1v-3.2c2-0.4,2-1.5,2-2.8
		C-7,44.3-8.3,43-10,43z M-10,47c-0.5,0-1-0.5-1-1c0-0.5,0.5-1,1-1c0.5,0,1,0.5,1,1C-9,46.5-9.5,47-10,47z"/>
</g>
<rect x="-23" y="25" class="st1" width="32" height="32"/>
<g id="Layer_1">
</g>
</svg>
