<?xml version="1.0" encoding="utf-8"?>
<!-- Generator: Adobe Illustrator 19.0.0, SVG Export Plug-In . SVG Version: 6.00 Build 0)  -->
<svg version="1.1" id="Слой_1" xmlns="http://www.w3.org/2000/svg" xmlns:xlink="http://www.w3.org/1999/xlink" x="0px" y="0px"
	 viewBox="-27 29 24 24" style="enable-background:new -27 29 24 24;" xml:space="preserve">
<style type="text/css">
	.st0{display:none;}
	.st1{fill:#1083FF;}
</style>
<g id="grid" class="st0">
</g>
<g id="icon">
	<path class="st1" d="M-18.8,41.5L-18.8,41.5c-0.1,0.1-0.1,0.1-0.1,0.2c0,0,0,0,0,0l-1,3.6c0,0.2,0,0.4,0.1,0.5
		c0.1,0.1,0.2,0.1,0.4,0.1c0,0,0.1,0,0.1,0l3.6-1c0,0,0,0,0,0c0.1,0,0.1-0.1,0.2-0.1l0,0l0,0l12.2-12.2c0.5-0.5,0.5-1.2,0-1.7
		l-1.6-1.6c-0.5-0.5-1.2-0.5-1.7,0L-18.8,41.5L-18.8,41.5z M-6,30.1c0.1-0.1,0.2-0.1,0.3,0l1.6,1.6c0.1,0.1,0.1,0.2,0,0.3l-0.4,0.4
		l-1.9-1.9L-6,30.1z M-7.1,31.2l1.9,1.9l-10.7,10.7l-1.9-1.9L-7.1,31.2z M-18.2,42.8l1.4,1.4l-1.9,0.5L-18.2,42.8z"/>
	<path class="st1" d="M-25.2,53h17.4c1,0,1.8-0.8,1.8-1.8V39.4c0-0.3-0.2-0.5-0.5-0.5S-7,39.1-7,39.4v11.8c0,0.5-0.4,0.8-0.8,0.8
		h-17.4c-0.5,0-0.8-0.4-0.8-0.8V33.8c0-0.5,0.4-0.8,0.8-0.8h11.8c0.3,0,0.5-0.2,0.5-0.5s-0.2-0.5-0.5-0.5h-11.8
		c-1,0-1.8,0.8-1.8,1.8v17.4C-27,52.2-26.2,53-25.2,53z"/>
</g>
</svg>
