<?xml version="1.0" encoding="utf-8"?>
<!-- Generator: Adobe Illustrator 19.0.0, SVG Export Plug-In . SVG Version: 6.00 Build 0)  -->
<svg version="1.1" id="Layer_1" xmlns="http://www.w3.org/2000/svg" xmlns:xlink="http://www.w3.org/1999/xlink" x="0px" y="0px"
	 viewBox="24 -24 128 128" style="enable-background:new 24 -24 128 128;" xml:space="preserve">
<style type="text/css">
	.st0{fill:#1083FF;}
</style>
<path class="st0" d="M140-8c-2.2,0-4-1.8-4-4s1.8-4,4-4s4-1.8,4-4s-1.8-4-4-4H88H56H44c-6.6,0-12,5.4-12,12V96c0,4.4,3.6,8,8,8h96
	c4.4,0,8-3.6,8-8V-4C144-6.2,142.2-8,140-8z M88-16h40.7c-0.4,1.3-0.7,2.6-0.7,4s0.3,2.7,0.7,4H88V-16z M64,0v-8v-8h16v8v8v20.7
	l-8-8l-8,8V0z M44-16h12v8H44c-2.2,0-4-1.8-4-4S41.8-16,44-16z M136,96H40V-0.7C41.3-0.3,42.6,0,44,0h12v40l16-16l16,16V0h48V96z"/>
</svg>
