<svg id="Слой_1" data-name="Слой 1" xmlns="http://www.w3.org/2000/svg" viewBox="0 0 65 55"><defs><style>.cls-1{fill:#1083FF;}</style></defs><path class="cls-1" d="M60.44,4.37Q55.9-.07,47.87-.07A14.14,14.14,0,0,0,43.34.7,18,18,0,0,0,39,2.78c-1.33.87-2.46,1.69-3.42,2.46a35.07,35.07,0,0,0-2.73,2.43,34.92,34.92,0,0,0-2.72-2.43c-1-.77-2.09-1.58-3.42-2.46A18.26,18.26,0,0,0,22.44.7a14.09,14.09,0,0,0-4.53-.77q-8,0-12.57,4.44C2.32,7.33.8,11.45.8,16.69a15.74,15.74,0,0,0,.84,4.95A22.48,22.48,0,0,0,3.56,26,32.15,32.15,0,0,0,6,29.45c.91,1.13,1.57,1.92,2,2.35a10.36,10.36,0,0,0,1,.93L31.32,54.29a2.28,2.28,0,0,0,3.17,0L56.78,32.81Q65,24.6,65,16.69C65,11.45,63.47,7.33,60.44,4.37Z"/></svg>