<svg id="Слой_1" data-name="Слой 1" xmlns="http://www.w3.org/2000/svg" viewBox="0 0 65 55"><defs><style>.cls-1{fill:#1083FF;}</style></defs><g id="Layer_2" data-name="Layer 2"><path class="cls-1" d="M61,21.27h0v-.19S61,21,61,21h0s0-.09,0-.12v0a1.45,1.45,0,0,0-.11-.26l-.09-.12h0a.36.36,0,0,0-.08-.09l0,0a.18.18,0,0,0-.09-.06v0L53.47,15V1.21A1.29,1.29,0,0,0,52.19-.07H13.56a1.29,1.29,0,0,0-1.28,1.28V15L5.21,20.23v0a.18.18,0,0,0-.09.08l0,0L5,20.43l0,0a.42.42,0,0,0-.08.12,1.51,1.51,0,0,0-.12.26h0a.34.34,0,0,0,0,.12v0a.49.49,0,0,0,0,.12v.19h0V53.65A1.29,1.29,0,0,0,6,54.93H59.77a1.29,1.29,0,0,0,1.28-1.28V21.27Zm-3.54-.1L53.42,23.8V18.13ZM50.86,2.48v23l-18,11.64-18-11.64v-23ZM12.28,23.8,8.22,21.17l4.06-3Zm-5,28.55V23.59l24.91,16.1a1.26,1.26,0,0,0,.7.2,1.29,1.29,0,0,0,.7-.2l24.91-16.1V52.34H7.24Z"/><path class="cls-1" d="M32,31.56a12.32,12.32,0,0,0,6-1.35l-.54-1.45a10.43,10.43,0,0,1-5.11,1.18c-5,0-8.69-3.48-8.69-9.13,0-6.86,4.65-11.23,10.16-11.23C39.08,9.58,42,13.09,42,18c0,3.93-1.93,6.23-3.65,6.2-1.11,0-1.52-1.21-1-3.79l1.15-6.13a8.9,8.9,0,0,0-3.62-.72,8,8,0,0,0-8,8c0,2.68,1.69,4.26,3.65,4.26a5.28,5.28,0,0,0,4.76-3h.14c-.1,2.07,1.14,3,2.51,3,3.17,0,6-3,6-8A9.4,9.4,0,0,0,34.11,8C26.6,8,21.77,14,21.77,21,21.75,27.5,26.45,31.56,32,31.56Zm3.46-12.15c-.37,2.1-2.17,4.61-4.13,4.61-1.48,0-2.24-1.08-2.24-2.58,0-3.28,2.41-6.09,5.38-6.09a5.47,5.47,0,0,1,1.69.24Z"/></g></svg>