<?xml version="1.0" encoding="utf-8"?>
<!-- Generator: Adobe Illustrator 19.0.0, SVG Export Plug-In . SVG Version: 6.00 Build 0)  -->
<svg version="1.1" id="Capa_1" xmlns="http://www.w3.org/2000/svg" xmlns:xlink="http://www.w3.org/1999/xlink" x="0px" y="0px"
	 viewBox="-738 490.6 21.4 21.4" style="enable-background:new -738 490.6 21.4 21.4;" xml:space="preserve">
<style type="text/css">
	.st0{fill:#1083FF;}
</style>
<g>
	<g>
		<g>
			<path class="st0" d="M-723.2,490.6h-0.6c-2,0.8-3.6,2-3.7,4.7C-724.7,495.7-723.2,493.5-723.2,490.6z"/>
			<path class="st0" d="M-730.9,512h1.1c1.6-1.2,4.3-0.9,5.9,0h0.8c1.6-0.7,4.2-3.9,4.2-5.7c-3.4-0.7-3.7-7.1-0.6-8.3l0,0
				c-0.9-1.3-2.1-2.2-4-2.2l0,0c-0.2,0-0.3,0-0.5,0l0,0c-1.2,0.1-2.3,1-3.4,1l0,0c-1.2,0-2.2-1-3.3-1l0,0
				C-739,495.4-735.9,509.1-730.9,512z"/>
		</g>
	</g>
</g>
</svg>
