<?xml version="1.0" encoding="utf-8"?>
<!-- Generator: Adobe Illustrator 19.0.0, SVG Export Plug-In . SVG Version: 6.00 Build 0)  -->
<svg version="1.1" id="Icons" xmlns="http://www.w3.org/2000/svg" xmlns:xlink="http://www.w3.org/1999/xlink" x="0px" y="0px"
	 viewBox="-733 485 32 32" style="enable-background:new -733 485 32 32;" xml:space="preserve">
<style type="text/css">
	.st0{fill:#1083FF;}
</style>
<path class="st0" d="M-717,487c-6.6,0-12,5.3-12,11.9v3.5c0,0.1,0,0.1,0,0.2s0,0.3,0,0.4c0,2.8,2.2,5,5,5c0.6,0,1-0.4,1-1v-8
	c0-0.6-0.4-1-1-1c-1.1,0-2.2,0.4-3,1v-0.2c0-5.4,4.5-9.8,10-9.8s10,4.4,10,9.9v0.1c-0.8-0.6-1.9-1-3-1c-0.6,0-1,0.4-1,1v8
	c0,0.6,0.4,1,1,1c0.7,0,1.4-0.2,2-0.4c-1,2.1-2.8,3.7-5,4.6c0-0.1,0-0.1,0-0.2c0-0.6-0.4-1-1-1h-3c-0.6,0-1,0.4-1,1v2
	c0,0.6,0.4,1,1,1c6.6,0,12-5.2,12-11.6v-1V500v-1.1C-705,492.3-710.4,487-717,487z"/>
</svg>
