<?xml version="1.0" encoding="utf-8"?>
<!-- Generator: Adobe Illustrator 19.0.0, SVG Export Plug-In . SVG Version: 6.00 Build 0)  -->
<svg version="1.1" id="Слой_1" xmlns="http://www.w3.org/2000/svg" xmlns:xlink="http://www.w3.org/1999/xlink" x="0px" y="0px"
	 viewBox="171 -191 512 512" style="enable-background:new 171 -191 512 512;" xml:space="preserve">
<style type="text/css">
	.st0{fill:#1083FF;}
</style>
<path class="st0" d="M616.1,154.1l18.9-71V41c-8.1-94-87.9-168-184-168h-32V41H303.2l-17.8-78.8C282.1-52.5,269.1-62.9,254-63h-67
	v32h67l40.5,178.7c-42.7,11.3-68.2,55.1-56.8,97.8s55.1,68.2,97.8,56.8c35.1-9.3,59.5-41,59.5-77.3c0-2.7-0.1-5.4-0.4-8h104.8
	c-0.3,2.6-0.4,5.3-0.4,8c0,44.2,35.8,80,80,80c44.2,0,80-35.8,80-80C659,195.3,642.5,167.9,616.1,154.1z M451-95
	c78.4,0,143.1,59.7,151.2,136H451V-95z M315,273c-26.5,0-48-21.5-48-48s21.5-48,48-48s48,21.5,48,48C363,251.5,341.5,273,315,273z
	 M509.8,185H384.2c-12.2-21.1-33.3-35.4-57.3-39.1L310.4,73H603v5.9l-17.7,66.4c-2.1-0.2-4.2-0.3-6.3-0.3
	C550.4,145,524,160.3,509.8,185z M579,273c-26.5,0-48-21.5-48-48s21.5-48,48-48s48,21.5,48,48C627,251.5,605.5,273,579,273z"/>
</svg>
