<?xml version="1.0" encoding="utf-8"?>
<!-- Generator: Adobe Illustrator 19.0.0, SVG Export Plug-In . SVG Version: 6.00 Build 0)  -->
<svg version="1.1"
	 id="svg4154" inkscape:version="0.48.4 r9939" sodipodi:docname="New document 4" xmlns:svg="http://www.w3.org/2000/svg" xmlns:cc="http://creativecommons.org/ns#" xmlns:dc="http://purl.org/dc/elements/1.1/" xmlns:sodipodi="http://sodipodi.sourceforge.net/DTD/sodipodi-0.dtd" xmlns:inkscape="http://www.inkscape.org/namespaces/inkscape" xmlns:rdf="http://www.w3.org/1999/02/22-rdf-syntax-ns#"
	 xmlns="http://www.w3.org/2000/svg" xmlns:xlink="http://www.w3.org/1999/xlink" x="0px" y="0px" viewBox="30 -64.5 280 210"
	 style="enable-background:new 30 -64.5 280 210;" xml:space="preserve">
<style type="text/css">
	.st0{fill:#1083FF;}
	.st1{fill:#ED1C24;}
</style>
<sodipodi:namedview  inkscape:window-maximized="1" inkscape:window-y="-8" inkscape:pageshadow="0" fit-margin-bottom="0" inkscape:window-width="1366" inkscape:pageopacity="0.0" inkscape:current-layer="layer1" fit-margin-right="0" inkscape:window-height="746" inkscape:window-x="-8" inkscape:document-units="px" id="base" showgrid="false" bordercolor="#ffffff" inkscape:cy="42.853093" inkscape:cx="143.44787" inkscape:zoom="2.8" fit-margin-top="0" borderopacity="0.0" pagecolor="#ffffff" fit-margin-left="0">
	</sodipodi:namedview>
<g>
	<path id="XMLID_8_" class="st0" d="M304.8,49.2l-13.5-13.5L276.6-8.8c-2.4-7.2-9.1-12-16.6-12H205v-17.5
		c0-14.5-11.8-26.2-26.2-26.2H56.3C41.8-64.5,30-52.7,30-38.3V93c0,14.5,11.8,26.2,26.2,26.2h10c4.8,18.7,23.9,30,42.6,25.1
		c18.7-4.8,30-23.9,25.1-42.6s-23.9-30-42.6-25.1c-12.3,3.2-22,12.8-25.1,25.1h-10c-4.8,0-8.7-3.9-8.7-8.7V-38.3
		c0-4.8,3.9-8.7,8.7-8.7h122.5c4.8,0,8.7,3.9,8.7,8.7v140h-26.2c-4.8,0-8.7,3.9-8.7,8.7s3.9,8.7,8.7,8.7H215
		c5.1,18.7,24.3,29.7,43,24.6c12-3.3,21.3-12.6,24.6-24.6h10c9.7,0,17.5-7.8,17.5-17.5V61.6C310,56.9,308.1,52.5,304.8,49.2z
		 M100,93c9.7,0,17.5,7.8,17.5,17.5S109.7,128,100,128s-17.5-7.8-17.5-17.5S90.3,93,100,93z M271.6,31.7H240v-35h19.9L271.6,31.7z
		 M248.7,128c-9.7,0-17.5-7.8-17.5-17.5S239.1,93,248.7,93c9.7,0,17.5,7.8,17.5,17.5S258.4,128,248.7,128z M292.5,101.7h-10
		c-5.1-18.7-24.3-29.7-43-24.6c-12,3.3-21.3,12.6-24.6,24.6h-10v-105h17.5v43.7c0,4.8,3.9,8.7,8.7,8.7h48.9l12.3,12.3V101.7z"/>
	<g>
		<path id="path3461" inkscape:connector-curvature="0" class="st1" d="M148-6.1c0.3-0.1,0.7,0.1,1.1,0.6c0,0,0,0,18.2,17.8
			c1.1,1.1,1.1,2.7,0,3.5c0,0,0,0-18.2,18c-0.4,0.5-0.8,0.7-1.1,0.5c-0.3-0.2-0.5-0.6-0.5-1.3V-5C147.5-5.6,147.7-6.1,148-6.1z"/>
		<path id="path3463" inkscape:connector-curvature="0" class="st1" d="M116.9-35.8h1.3l1.2,0.5c0,0,0,0,18.8,18.6
			c0.8,1.1,0.5,1.9-0.8,1.9c0,0,0,0-7.8,0c-1.3,0-2.4,1.1-2.4,2.4c0,0,0,0,0,13.8c0,1.3-1.1,2.4-2.7,2.4c0,0,0,0-13.7,0
			c-1.3,0-2.4-1.1-2.4-2.4c0,0,0,0,0-13.8c0-1.3-1.1-2.4-2.4-2.4h-8.3c-1.3,0-1.6-0.8-0.8-1.9c0,0,0,0,18.8-18.6
			C115.6-35.2,116.9-35.8,116.9-35.8z"/>
		<path id="path3465" inkscape:connector-curvature="0" class="st1" d="M87.5-6.5C87.8-6.4,88-5.9,88-5.2v38.7
			c0,0.7-0.2,1.1-0.5,1.2c-0.3,0.1-0.8,0-1.3-0.4c0,0,0,0-18.5-18.6c-1.1-0.8-1.1-2.4,0-3.5c0,0,0,0,18.5-18.3
			C86.7-6.6,87.1-6.7,87.5-6.5z"/>
		<path id="path3467" inkscape:connector-curvature="0" class="st1" d="M110.8,23.9c0,0,0,0,13.7,0c1.6,0,2.7,1.1,2.7,2.4
			c0,0,0,0,0,14.6c0,1.6,1.1,2.7,2.4,2.7h7.2c1.3,0,1.9,0.8,0.8,1.6c0,0,0,0-18.2,18.3c-0.5,0.5-1.2,0.8-1.9,0.8
			c-0.7,0-1.3-0.3-1.9-0.8c0,0,0,0-18.2-18.3c-1.1-0.8-0.5-1.6,0.8-1.6c0,0,0,0,7.8,0c1.4,0,2.4-1.1,2.4-2.7c0,0,0,0,0-14.6
			C108.4,25,109.5,23.9,110.8,23.9z"/>
	</g>
</g>
</svg>
