<?xml version="1.0" encoding="utf-8"?>
<!-- Generator: Adobe Illustrator 19.0.0, SVG Export Plug-In . SVG Version: 6.00 Build 0)  -->
<svg version="1.1" id="Capa_1" xmlns="http://www.w3.org/2000/svg" xmlns:xlink="http://www.w3.org/1999/xlink" x="0px" y="0px"
	 viewBox="2 -22.2 174.2 174.2" style="enable-background:new 2 -22.2 174.2 174.2;" xml:space="preserve">
<style type="text/css">
	.st0{fill:#1083FF;}
</style>
<g>
	<path class="st0" d="M89.1,128.2l6.2-8.9c4.6-6.6,44.5-65.4,44.5-90.9c0-27.9-22.7-50.7-50.7-50.7S38.5,0.5,38.5,28.4
		c0,25.4,39.9,84.2,44.5,90.9L89.1,128.2z M89.1-7.3c19.7,0,35.7,16,35.7,35.7c0,13.8-19.9,48.9-35.7,73.2
		C73.3,77.3,53.4,42.2,53.4,28.4C53.4,8.7,69.4-7.3,89.1-7.3z"/>
	<path class="st0" d="M132.1,91.4l-7.2-2.1l-4.3,14.3l7.2,2.1c14.9,4.4,20.3,10.2,20.3,13c0,6.2-20.8,18.2-59,18.3
		c-16.7,0.1-32.6-2.4-44.4-6.9c-10.1-3.9-14.7-8.5-14.7-11.1c0-2.8,5.3-8.5,19.9-13l7.1-2.2l-4.4-14.3l-7.1,2.2
		c-19.7,6.1-30.5,15.8-30.4,27.3c0,5.9,3.2,16.9,24.3,25c13.3,5.1,30.7,7.9,49.2,7.9c0.2,0,0.3,0,0.5,0
		c36.7-0.1,73.9-11.6,73.9-33.3C163,107.1,152,97.4,132.1,91.4z"/>
	<path class="st0" d="M104,26.9c0-8.2-6.7-14.9-14.9-14.9s-14.9,6.7-14.9,14.9s6.7,14.9,14.9,14.9S104,35.1,104,26.9z M89.1,34.3
		L89.1,34.3L89.1,34.3L89.1,34.3L89.1,34.3z"/>
</g>
</svg>
