<?xml version="1.0" encoding="utf-8"?>
<!-- Generator: Adobe Illustrator 19.0.0, SVG Export Plug-In . SVG Version: 6.00 Build 0)  -->
<svg version="1.1"
	 id="svg4154" inkscape:version="0.48.4 r9939" sodipodi:docname="New document 4" xmlns:svg="http://www.w3.org/2000/svg" xmlns:cc="http://creativecommons.org/ns#" xmlns:dc="http://purl.org/dc/elements/1.1/" xmlns:sodipodi="http://sodipodi.sourceforge.net/DTD/sodipodi-0.dtd" xmlns:inkscape="http://www.inkscape.org/namespaces/inkscape" xmlns:rdf="http://www.w3.org/1999/02/22-rdf-syntax-ns#"
	 xmlns="http://www.w3.org/2000/svg" xmlns:xlink="http://www.w3.org/1999/xlink" x="0px" y="0px" viewBox="130 3 80 75"
	 style="enable-background:new 130 3 80 75;" xml:space="preserve">
<style type="text/css">
	.st0{fill:#ED1C24;}
</style>
<sodipodi:namedview  inkscape:window-maximized="1" inkscape:window-y="-8" inkscape:pageshadow="0" fit-margin-bottom="0" inkscape:window-width="1366" inkscape:pageopacity="0.0" inkscape:current-layer="layer1" fit-margin-right="0" inkscape:window-height="746" inkscape:window-x="-8" inkscape:document-units="px" id="base" showgrid="false" bordercolor="#ffffff" inkscape:cy="42.853093" inkscape:cx="143.44787" inkscape:zoom="2.8" fit-margin-top="0" borderopacity="0.0" pagecolor="#ffffff" fit-margin-left="0">
	</sodipodi:namedview>
<g>
	<path id="path3461" inkscape:connector-curvature="0" class="st0" d="M192.9,25.2c0.2-0.1,0.5,0.1,0.8,0.5c0,0,0,0,13.7,13.3
		c0.8,0.8,0.8,2,0,2.6c0,0,0,0-13.7,13.5c-0.3,0.4-0.6,0.5-0.8,0.4c-0.2-0.1-0.4-0.5-0.4-1V26.1C192.5,25.6,192.7,25.3,192.9,25.2z"
		/>
	<path id="path3463" inkscape:connector-curvature="0" class="st0" d="M169.5,3h1l0.9,0.4c0,0,0,0,14.1,13.9
		c0.6,0.8,0.4,1.4-0.6,1.4c0,0,0,0-5.8,0c-1,0-1.8,0.8-1.8,1.8c0,0,0,0,0,10.3c0,1-0.8,1.8-2,1.8c0,0,0,0-10.2,0
		c-1,0-1.8-0.8-1.8-1.8c0,0,0,0,0-10.3c0-1-0.8-1.8-1.8-1.8h-6.2c-1,0-1.2-0.6-0.6-1.4c0,0,0,0,14.1-13.9C168.6,3.4,169.5,3,169.5,3
		z"/>
	<path id="path3465" inkscape:connector-curvature="0" class="st0" d="M147.5,24.9c0.3,0.1,0.4,0.5,0.4,1v29c0,0.5-0.2,0.8-0.4,0.9
		c-0.2,0.1-0.6,0-1-0.3c0,0,0,0-13.9-13.9c-0.8-0.6-0.8-1.8,0-2.6c0,0,0,0,13.9-13.7C146.9,24.9,147.2,24.8,147.5,24.9z"/>
	<path id="path3467" inkscape:connector-curvature="0" class="st0" d="M165,47.8c0,0,0,0,10.2,0c1.2,0,2,0.8,2,1.8c0,0,0,0,0,10.9
		c0,1.2,0.8,2,1.8,2h5.4c1,0,1.4,0.6,0.6,1.2c0,0,0,0-13.7,13.7c-0.4,0.4-0.9,0.6-1.4,0.6c-0.5,0-1-0.2-1.4-0.6c0,0,0,0-13.7-13.7
		c-0.8-0.6-0.4-1.2,0.6-1.2c0,0,0,0,5.8,0c1,0,1.8-0.8,1.8-2c0,0,0,0,0-10.9C163.2,48.6,164,47.8,165,47.8z"/>
</g>
</svg>
