<?xml version="1.0" encoding="utf-8"?>
<!-- Generator: Adobe Illustrator 19.0.0, SVG Export Plug-In . SVG Version: 6.00 Build 0)  -->
<svg version="1.1" id="Слой_1" xmlns="http://www.w3.org/2000/svg" xmlns:xlink="http://www.w3.org/1999/xlink" x="0px" y="0px"
	 viewBox="171 -191 512 512" style="enable-background:new 171 -191 512 512;" xml:space="preserve">
<style type="text/css">
	.st0{fill:#1083FF;}
</style>
<path class="st0" d="M671-15h-59.9l-16.6-41.6c-17.1-42.8-57.9-70.4-104-70.4h-127c-46.1,0-86.9,27.6-104,70.4L242.9-15H183
	c-7.8,0-13.5,7.3-11.6,14.9l6,24c1.3,5.3,6.1,9.1,11.6,9.1h20.1C195.6,44.7,187,61.8,187,81v48c0,16.1,6.2,30.7,16,41.9V225
	c0,17.7,14.3,32,32,32h32c17.7,0,32-14.3,32-32v-32h256v32c0,17.7,14.3,32,32,32h32c17.7,0,32-14.3,32-32v-54.1
	c9.8-11.3,16-25.8,16-41.9V81c0-19.2-8.7-36.3-22.1-48H665c5.5,0,10.3-3.8,11.6-9.1l6-24C684.5-7.7,678.8-15,671-15L671-15z
	 M318.9-32.8c7.3-18.2,24.9-30.2,44.6-30.2h127c19.6,0,37.3,11.9,44.6,30.2L555,17H299L318.9-32.8z M267,128.8
	c-19.2,0-32-12.8-32-31.9S247.8,65,267,65s48,28.7,48,47.9S286.2,128.8,267,128.8L267,128.8z M587,128.8c-19.2,0-48,3.2-48-16
	S567.8,65,587,65s32,12.8,32,31.9S606.2,128.8,587,128.8z"/>
</svg>
