<?xml version="1.0" encoding="utf-8"?>
<!-- Generator: Adobe Illustrator 19.0.0, SVG Export Plug-In . SVG Version: 6.00 Build 0)  -->
<svg version="1.1" id="Слой_1" xmlns:serif="http://www.serif.com/"
	 xmlns="http://www.w3.org/2000/svg" xmlns:xlink="http://www.w3.org/1999/xlink" x="0px" y="0px" viewBox="0 0 170 130"
	 style="enable-background:new 0 0 170 130;" xml:space="preserve">
<style type="text/css">
	.st0{fill:#1083FF;}
</style>
<g id="Icon">
	<path class="st0" d="M52.5,101.7c-4.9-3.7-8.1-9.5-8.1-16.2c0-12.2,0-28.8,0-41c0-6.6,3.2-12.5,8.1-16.2
		c0.1-11.2,9.1-20.2,20.3-20.2h24.4c11.2,0,20.3,9,20.3,20.2c4.9,3.7,8.1,9.5,8.1,16.2v41c0,6.6-3.2,12.5-8.1,16.2
		c-0.1,11.2-9.1,20.2-20.3,20.2c-7.6,0-16.7,0-24.4,0C61.6,121.9,52.6,112.8,52.5,101.7z M108.8,105.4c-1.1,0.2-2.2,0.3-3.3,0.3
		c-12.2,0-28.8,0-41,0c-1.1,0-2.2-0.1-3.3-0.3c1.6,4.9,6.2,8.4,11.6,8.4c7.6,0,16.7,0,24.4,0C102.6,113.8,107.2,110.2,108.8,105.4z
		 M117.5,44.5c0-6.6-5.4-12-12-12c-12.2,0-28.8,0-41,0c-6.6,0-12,5.4-12,12c0,12.2,0,28.8,0,41c0,6.6,5.4,12,12,12
		c12.2,0,28.8,0,41,0c6.6,0,12-5.4,12-12C117.5,85.5,117.5,44.5,117.5,44.5z M85,79.2c-2.1,0-3.8-1.7-3.8-3.8s1.7-3.8,3.8-3.8
		s3.8,1.7,3.8,3.8S87.1,79.2,85,79.2z M75.7,71.5c1.3-3.1,5-5.2,9.3-5.2s7.9,2,9.3,5.2c0.9,2.1,3.3,3,5.3,2.2c2.1-0.9,3-3.3,2.1-5.3
		c-2.5-5.8-9-10.1-16.7-10.1s-14.3,4.3-16.7,10.1c-0.9,2.1,0.1,4.5,2.1,5.3C72.5,74.6,74.9,73.6,75.7,71.5z M66.4,67.1
		c1.7-7.1,9.5-12.2,18.6-12.2s16.8,5.1,18.6,12.2c0.5,2.2,2.7,3.5,4.9,3c2.2-0.5,3.5-2.7,3-4.9C108.9,54.8,98.2,46.7,85,46.7
		s-23.9,8.1-26.5,18.4c-0.5,2.2,0.8,4.4,3,4.9C63.7,70.6,65.9,69.3,66.4,67.1z M108.8,24.6c-1.6-4.9-6.2-8.4-11.6-8.4
		c-7.6,0-16.7,0-24.4,0c-5.4,0-10,3.5-11.6,8.4c1.1-0.2,2.2-0.3,3.3-0.3c12.2,0,28.8,0,41,0C106.6,24.4,107.7,24.5,108.8,24.6z"/>
</g>
</svg>
