<?xml version="1.0" encoding="utf-8"?>
<!-- Generator: Adobe Illustrator 19.0.0, SVG Export Plug-In . SVG Version: 6.00 Build 0)  -->
<svg version="1.1" id="Flat" xmlns="http://www.w3.org/2000/svg" xmlns:xlink="http://www.w3.org/1999/xlink" x="0px" y="0px"
	 viewBox="-621 373 256 256" style="enable-background:new -621 373 256 256;" xml:space="preserve">
<style type="text/css">
	.st0{fill:#1083FF;}
</style>
<path class="st0" d="M-437,493h-32c-6.6,0-12-5.4-12-12s5.4-12,12-12h32c6.6,0,12,5.4,12,12S-430.4,493-437,493z M-517,469h-4v-4
	c0-6.6-5.4-12-12-12s-12,5.4-12,12v4h-4c-6.6,0-12,5.4-12,12s5.4,12,12,12h4v4c0,6.6,5.4,12,12,12s12-5.4,12-12v-4h4
	c6.6,0,12-5.4,12-12S-510.4,469-517,469z M-402,600.4c-12.8,2.3-26-1.9-35.2-11.1c-0.2-0.2-0.4-0.4-0.6-0.7l-39.4-43.8l-31.3,0.1
	l-39.5,43.7c-0.2,0.2-0.4,0.4-0.6,0.6c-15.6,15.6-41,15.6-56.6,0c-9.2-9.2-13.4-22.4-11.1-35.2c0-0.1,0-0.1,0-0.2l16.3-83.7
	c0-0.1,0-0.1,0-0.2c5.3-30.6,32-53,63-52.9l88-0.3h0c30.9,0,57.4,22.1,62.9,52.5c0,0.1,0,0.1,0,0.2l16.4,84.4c0,0.1,0,0.1,0,0.2
	C-365.8,575.8-380.3,596.5-402,600.4z M-449,520.7c22.1,0,40-17.9,40-40c0-22.1-17.9-40-40-40l-88,0.3
	c-19.3-0.1-35.9,13.7-39.4,32.6c0,0.2-0.1,0.4-0.1,0.6l-16.3,84c-1.5,8.7,4.4,17,13.1,18.5c5,0.9,10.1-0.7,13.8-4.3l43-47.6
	c2.3-2.5,5.5-3.9,8.9-4L-449,520.7z M-393.2,558.3l-7-36.2c-11.3,13.3-27.6,21.5-45,22.5l25.1,27.9c6.4,6.1,16.5,5.9,22.6-0.4
	C-393.9,568.4-392.4,563.3-393.2,558.3z"/>
</svg>
