<?xml version="1.0" encoding="utf-8"?>
<!-- Generator: Adobe Illustrator 19.0.0, SVG Export Plug-In . SVG Version: 6.00 Build 0)  -->
<svg version="1.1" id="Capa_1" xmlns="http://www.w3.org/2000/svg" xmlns:xlink="http://www.w3.org/1999/xlink" x="0px" y="0px"
	 viewBox="-53 34 63 63" style="enable-background:new -53 34 63 63;" xml:space="preserve">
<style type="text/css">
	.st0{fill:#1083FF;}
</style>
<g>
	<path id="path-1_27_" class="st0" d="M3.2,90.3c0,3-2.4,5.1-5.1,5.1h-38.6c-3,0-5.1-2.4-5.1-5.1v-49c0-3,2.4-5.1,5.1-5.1h38.6
		c3,0,5.1,2.4,5.1,5.1V90.3z M0.2,41c0-1.2-1.2-2.4-2.4-2.4h-38.6c-1.2,0-2.4,1.2-2.4,2.4v49c0,1.2,1.2,2.4,2.4,2.4h38.6
		c1.2,0,2.4-1.2,2.4-2.4V41z"/>
	<path id="path-2_27_" class="st0" d="M1.1,53.8h-46.4c-0.9,0-0.9-0.6-0.9-1.5v-11c0-3,2.4-5.6,5.1-5.6h38.3c3,0,5.6,3,5.6,5.6v11
		C3.2,53.2,2,53.8,1.1,53.8z M-43.2,51.1H0.2v-9.5c0-1.2-1.5-2.7-2.7-2.7h-38.3c-1.2,0-2.4,1.5-2.4,2.7V51.1z"/>
	<path id="path-3_27_" class="st0" d="M-29.5,53.5c-0.9,0-1.5-0.6-1.5-1.5V37.7c0-0.9,0.6-1.5,1.5-1.5c0.9,0,1.5,0.6,1.5,1.5V52
		C-28,52.9-28.6,53.5-29.5,53.5z"/>
	<path id="path-4_26_" class="st0" d="M-3.4,45.1c0,1.5-1.2,2.4-2.4,2.4s-2.4-1.2-2.4-2.4c0-1.5,1.2-2.4,2.4-2.4S-3.4,43.7-3.4,45.1
		z"/>
	<path id="path-5_26_" class="st0" d="M-10.2,45.1c0,1.5-1.2,2.4-2.4,2.4c-1.5,0-2.4-1.2-2.4-2.4c0-1.5,1.2-2.4,2.4-2.4
		C-11.4,42.8-10.2,43.7-10.2,45.1z"/>
	<path id="path-6_22_" class="st0" d="M-17,45.1c0,1.5-1.2,2.4-2.4,2.4c-1.5,0-2.4-1.2-2.4-2.4c0-1.5,1.2-2.4,2.4-2.4
		C-18.2,42.8-17,43.7-17,45.1z"/>
	<path id="path-7_18_" class="st0" d="M-22.1,88.2c-7.4,0-13.7-5.9-13.7-13.7s5.9-13.7,13.7-13.7c7.4,0,13.7,5.9,13.7,13.7
		S-14.7,88.2-22.1,88.2z M-22.1,63.9c-5.9,0-10.7,4.8-10.7,10.7c0,5.9,4.8,10.7,10.7,10.7s10.7-4.8,10.7-10.7
		C-11.4,68.6-16.4,63.9-22.1,63.9z"/>
</g>
</svg>
