<?xml version="1.0" encoding="utf-8"?>
<!-- Generator: Adobe Illustrator 19.0.0, SVG Export Plug-In . SVG Version: 6.00 Build 0)  -->
<svg version="1.1" id="레이어_1" xmlns="http://www.w3.org/2000/svg" xmlns:xlink="http://www.w3.org/1999/xlink" x="0px"
	 y="0px" viewBox="-19 21 40 40" style="enable-background:new -19 21 40 40;" xml:space="preserve">
<style type="text/css">
	.st0{fill:#1083FF;}
</style>
<path class="st0" d="M0.3,37.2l2.9,3.2h0l0,0c0.2,0.2,0.4,0.3,0.7,0.3c0.3,0,0.5-0.1,0.7-0.3l6-5.8c0.4-0.3,0.5-0.9,0.1-1.3
	s-0.9-0.5-1.3-0.1c0,0-0.1,0.1-0.1,0.1L4,38.4l-2.3-2.5c-0.4-0.4-1-0.4-1.3,0l0,0C0,36.3,0,36.8,0.3,37.2z"/>
<path class="st0" d="M-6,47h0.8c0.5,0,0.5,0,0.8,0H15c0.9,0,1.6-0.7,1.7-1.6L19,30v-0.1c0-0.9-0.8-1.7-1.7-1.7H-9.8l-1.6-5.5H-16
	c-0.5,0-1,0.3-1,0.9c0,0.5,0.3,1,0.9,1c0.1,0,0.1,0,0.2,0h3.1l6.2,20.6c-2.2,0.4-3.8,2.5-3.4,4.8c0.3,1.7,1.6,3,3.3,3.4
	c-0.4,0.6-0.6,1.3-0.6,2.1c0,2.2,1.7,3.9,3.9,4s3.9-1.7,4-3.8c0-0.7-0.2-1.5-0.6-2.1h10.7c-1.1,1.8-0.5,4.2,1.3,5.3s4.2,0.5,5.3-1.3
	s0.5-4.2-1.3-5.3c-0.6-0.4-1.3-0.5-2-0.5H-6c-1.2,0-2.2-1-2.2-2.2C-8.2,48-7.2,47-6,47z M17.1,30.1l-2.3,15H-4.8l-4.5-15H17.1z
	 M-1.5,55.3c0,1.1-0.9,2-2,2s-2-0.9-2-2s0.9-2,2-2S-1.5,54.2-1.5,55.3z M15.8,55.3c0,1.1-0.9,2-2,2c-1.1,0-2-0.9-2-2s0.9-2,2-2
	C15,53.3,15.8,54.2,15.8,55.3z"/>
</svg>
