<?xml version="1.0" encoding="utf-8"?>
<!-- Generator: Adobe Illustrator 19.0.0, SVG Export Plug-In . SVG Version: 6.00 Build 0)  -->
<svg version="1.1" id="Слой_1" xmlns="http://www.w3.org/2000/svg" xmlns:xlink="http://www.w3.org/1999/xlink" x="0px" y="0px"
	 viewBox="-27 29 24 24" style="enable-background:new -27 29 24 24;" xml:space="preserve">
<style type="text/css">
	.st0{fill:none;stroke:#1083FF;stroke-linecap:round;stroke-linejoin:round;}
</style>
<g>
	<title></title>
	<path class="st0" d="M-19.5,52.5h-5c-1.1,0-2-0.9-2-2v-19c0-1.1,0.9-2,2-2h10c1.1,0,2,0.9,2,2v9"/>
	<line class="st0" x1="-12.5" y1="33.5" x2="-26.5" y2="33.5"/>
	<line class="st0" x1="-19.5" y1="48.5" x2="-26.5" y2="48.5"/>
	<line class="st0" x1="-21.5" y1="31.5" x2="-17.5" y2="31.5"/>
	<line class="st0" x1="-17.5" y1="45.5" x2="-3.5" y2="45.5"/>
	<line class="st0" x1="-11.5" y1="47.5" x2="-15.5" y2="47.5"/>
	<line class="st0" x1="-5.5" y1="47.5" x2="-7.5" y2="47.5"/>
	<line class="st0" x1="-13.5" y1="49.5" x2="-15.5" y2="49.5"/>
	<path class="st0" d="M-15.5,42.5h10c1.1,0,2,0.9,2,2v6c0,1.1-0.9,2-2,2h-10c-1.1,0-2-0.9-2-2v-6C-17.5,43.4-16.6,42.5-15.5,42.5z"
		/>
	<path class="st0" d="M-20.9,41.6c0,0.8,0.6,1.4,1.4,1.4c0.8,0,1.4-0.6,1.4-1.4c0-0.8-0.6-1.4-1.4-1.4c-0.8,0-1.4-0.6-1.4-1.4
		c0-0.8,0.6-1.4,1.4-1.4c0.8,0,1.4,0.6,1.4,1.4c0,0,0,0,0,0"/>
	<line class="st0" x1="-19.5" y1="43" x2="-19.5" y2="43.9"/>
	<line class="st0" x1="-19.5" y1="36.5" x2="-19.5" y2="37.4"/>
</g>
</svg>
