<?xml version="1.0" encoding="utf-8"?>
<!-- Generator: Adobe Illustrator 19.0.0, SVG Export Plug-In . SVG Version: 6.00 Build 0)  -->
<svg version="1.1" id="Capa_1" xmlns="http://www.w3.org/2000/svg" xmlns:xlink="http://www.w3.org/1999/xlink" x="0px" y="0px"
	 viewBox="216 -216 512 512" style="enable-background:new 216 -216 512 512;" xml:space="preserve">
<style type="text/css">
	.st0{fill:#1083FF;}
</style>
<g>
	<g>
		<path class="st0" d="M372,200c-5.5,0-10,4.5-10,10s4.5,10,10,10s10-4.5,10-10S377.5,200,372,200z"/>
	</g>
</g>
<g>
	<g>
		<path class="st0" d="M648,20c-11.9,0-22.7,5.3-30,13.6c-7.3-8.3-18.1-13.6-30-13.6c-22.1,0-40,17.9-40,40s17.9,40,40,40
			c11.9,0,22.7-5.3,30-13.6c7.3,8.3,18.1,13.6,30,13.6c22.1,0,40-17.9,40-40S670.1,20,648,20z M588,80c-11,0-20-9-20-20s9-20,20-20
			s20,9,20,20S599,80,588,80z M648,80c-11,0-20-9-20-20s9-20,20-20s20,9,20,20S659,80,648,80z"/>
	</g>
</g>
<g>
	<g>
		<path class="st0" d="M698-20h-50v-150c0-16.5-13.5-30-30-30H246c-16.5,0-30,13.5-30,30V70c0,16.5,13.5,30,30,30h56v150
			c0,16.5,13.5,30,30,30h366c16.5,0,30-13.5,30-30V10C728-6.5,714.5-20,698-20z M236-170c0-5.5,4.5-10,10-10h372c5.5,0,10,4.5,10,10
			v30H236V-170z M236-120h392v40H236V-120z M302,10v70h-56c-5.5,0-10-4.5-10-10V-60h392v40H332C315.5-20,302-6.5,302,10z M708,250
			c0,5.5-4.5,10-10,10H332c-5.5,0-10-4.5-10-10V10c0-5.5,4.5-10,10-10h366c5.5,0,10,4.5,10,10V250z"/>
	</g>
</g>
<g>
	<g>
		<path class="st0" d="M475,30H372c-5.5,0-10,4.5-10,10v40c0,5.5,4.5,10,10,10h103c5.5,0,10-4.5,10-10V40C485,34.5,480.5,30,475,30z
			 M465,70h-83V50h83V70z"/>
	</g>
</g>
<g>
	<g>
		<path class="st0" d="M415,140h-43c-5.5,0-10,4.5-10,10s4.5,10,10,10h43c5.5,0,10-4.5,10-10S420.5,140,415,140z"/>
	</g>
</g>
<g>
	<g>
		<path class="st0" d="M495,140h-40c-5.5,0-10,4.5-10,10s4.5,10,10,10h40c5.5,0,10-4.5,10-10S500.5,140,495,140z"/>
	</g>
</g>
<g>
	<g>
		<path class="st0" d="M518,200H415c-5.5,0-10,4.5-10,10s4.5,10,10,10h103c5.5,0,10-4.5,10-10S523.5,200,518,200z"/>
	</g>
</g>
<g>
	<g>
		<path class="st0" d="M578,140h-40c-5.5,0-10,4.5-10,10s4.5,10,10,10h40c5.5,0,10-4.5,10-10S583.5,140,578,140z"/>
	</g>
</g>
<g>
	<g>
		<path class="st0" d="M658,140h-40c-5.5,0-10,4.5-10,10s4.5,10,10,10h40c5.5,0,10-4.5,10-10S663.5,140,658,140z"/>
	</g>
</g>
</svg>
