<svg id="Слой_1" data-name="Слой 1" xmlns="http://www.w3.org/2000/svg" viewBox="0 0 65 55"><defs><style>.cls-1{fill:#1083FF;}</style></defs><g id="Layer_2" data-name="Layer 2"><path class="cls-1" d="M32.52,55A27.47,27.47,0,0,0,60,28.9a1.23,1.23,0,0,0-1.16-1.29,1.24,1.24,0,0,0-1.29,1.16A25,25,0,1,1,45.91,6.35L43.15,9.73l7.92-.8L50.27,1,47.48,4.43A27.49,27.49,0,1,0,32.52,55Z"/><path class="cls-1" d="M45.48,21.86s0,0,0,0,0-.05,0-.08,0,0,0-.06a.43.43,0,0,0,0-.05.94.94,0,0,0-.12-.22h0l-5.19-7.63a1.23,1.23,0,0,0-1-.54H25.92a1.21,1.21,0,0,0-1,.54l-5.2,7.62h0a1.06,1.06,0,0,0-.11.21s0,0,0,.05a.1.1,0,0,0,0,.07s0,0,0,.08,0,0,0,0a1,1,0,0,0,0,.24h0V40.54a1.22,1.22,0,0,0,1.22,1.22H44.27a1.23,1.23,0,0,0,1.23-1.22V22.1h0A.82.82,0,0,0,45.48,21.86ZM26.57,15.69H38.44L42,20.86H23ZM43.05,39.33H22v-16h21.1v16Z"/></g></svg>