<?xml version="1.0" encoding="utf-8"?>
<!-- Generator: Adobe Illustrator 19.0.0, SVG Export Plug-In . SVG Version: 6.00 Build 0)  -->
<svg version="1.1" id="Слой_1" xmlns="http://www.w3.org/2000/svg" xmlns:xlink="http://www.w3.org/1999/xlink" x="0px" y="0px"
	 viewBox="-7 9 64 64" style="enable-background:new -7 9 64 64;" xml:space="preserve">
<style type="text/css">
	.st0{fill:#1083FF;}
</style>
<title></title>
<g id="Discount">
	<path class="st0" d="M54.6,53.6l-18-36.6c-0.8-1.5-2.4-2.4-4.1-2.2L15.8,17c0,0-0.1,0-0.1,0c0,0-0.1,0-0.1,0l-8.2,2.7l-10.7-8.6
		c-0.4-0.3-1.1-0.3-1.4,0.2c-0.3,0.4-0.3,1.1,0.2,1.4l9.7,7.8l-5.4,1.8c-1.6,0.5-2.7,2.1-2.7,3.8V67c0,2.2,1.8,4,4,4h30
		c1.9,0,3.6-1.4,3.9-3.2l17.9-8.8C54.7,58,55.6,55.6,54.6,53.6z M32.9,67c0,0,0,0.1,0,0.1c0,1.1-0.9,1.9-2,1.9h-30c-1.1,0-2-0.9-2-2
		V26.2c0-0.9,0.5-1.6,1.4-1.9L7,22l5.3,4.3c-0.3,0.5-0.4,1.1-0.4,1.7c0,2.2,1.8,4,4,4s4-1.8,4-4s-1.8-4-4-4c-0.8,0-1.7,0.3-2.3,0.8
		l-4.4-3.5l6.7-2.2l15.6,5.2c0.8,0.3,1.4,1,1.4,1.9L32.9,67z M16.6,27.2l-1.4-1.1c0.2-0.1,0.4-0.1,0.7-0.1c1.1,0,2,0.9,2,2
		s-0.9,2-2,2c-1.1,0-2-0.9-2-2c0-0.1,0-0.3,0-0.4l1.4,1.1c0.4,0.3,1.1,0.3,1.4-0.2S17.1,27.6,16.6,27.2L16.6,27.2z M51.9,57.1
		L51.9,57.1l-17,8.3V26.2c0-1.7-1.1-3.3-2.7-3.8l-11.9-4l12.4-1.7c0.9-0.1,1.7,0.3,2.1,1.1l18,36.6C53.3,55.5,52.9,56.7,51.9,57.1z"
		/>
	<path class="st0" d="M9.7,48.5c2.6,0,4.8-2.1,4.8-4.8c0-2.6-2.1-4.8-4.8-4.8c-2.6,0-4.8,2.1-4.8,4.8c0,1.3,0.5,2.5,1.4,3.4
		C7.2,48,8.4,48.5,9.7,48.5z M7.7,41.8c1.1-1.1,2.8-1.1,3.9,0c1.1,1.1,1.1,2.8,0,3.9c-1.1,1.1-2.8,1.1-3.9,0c-0.5-0.5-0.8-1.2-0.8-2
		C6.9,43,7.2,42.3,7.7,41.8z"/>
	<path class="st0" d="M18.8,52.9c-1.9,1.9-1.9,4.9,0,6.8s4.9,1.9,6.8,0c1.9-1.9,1.9-4.9,0-6.8C23.7,51,20.7,51,18.8,52.9
		C18.8,52.8,18.8,52.8,18.8,52.9z M24.1,58.2c-1.1,1.1-2.8,1.1-3.9,0s-1.1-2.8,0-3.9c1.1-1.1,2.8-1.1,3.9,0c0.5,0.5,0.8,1.2,0.8,2
		C24.9,57,24.6,57.7,24.1,58.2z"/>
	<path class="st0" d="M25.5,40.4c-0.4-0.4-1-0.4-1.4,0L6.3,58.2c-0.4,0.4-0.4,1,0,1.4c0.4,0.4,1,0.4,1.4,0c0,0,0,0,0,0l17.8-17.8
		C25.9,41.4,25.9,40.8,25.5,40.4z"/>
</g>
</svg>
