<?xml version="1.0" encoding="utf-8"?>
<!-- Generator: Adobe Illustrator 19.0.0, SVG Export Plug-In . SVG Version: 6.00 Build 0)  -->
<svg version="1.1" id="icon" xmlns="http://www.w3.org/2000/svg" xmlns:xlink="http://www.w3.org/1999/xlink" x="0px" y="0px"
	 viewBox="171 -191 512 512" style="enable-background:new 171 -191 512 512;" xml:space="preserve">
<style type="text/css">
	.st0{fill:#1083FF;}
</style>
<title>pay cash</title>
<g>
	<path class="st0" d="M632.7-27h-79.1l-97.4-31.8c-11.9-3.9-24.8-2.2-35.3,4.5l-58.7,37.7c-2.7,1.7-3.4,5.3-1.7,7.9
		c1.7,2.7,5.3,3.4,7.9,1.7l58.7-37.7c7.6-4.9,17-6.1,25.6-3.2l98.4,32c0.6,0.2,1.2,0.3,1.8,0.3H627v96.3h-42.7
		c-2.1,0-4.1,1.2-5.1,3.1c-6.4,11-16.2,19.4-27.9,24.2V82.2c9.2-3.9,19-10.7,25.3-22.6c1.5-2.8,0.4-6.3-2.4-7.8s-6.3-0.4-7.8,2.4
		l0,0C555.5,75,528.4,76,528.3,76c-36.3,0-46.8-25.3-47.2-26.4c-0.9-2.2-3-3.7-5.4-3.7h-53.9c-8.5,0.2-15.5-6.5-15.7-14.9
		c-0.2-8.5,6.5-15.5,14.9-15.7c0.3,0,0.5,0,0.8,0h64.3c3.2,0.1,5.8-2.3,6-5.5c0.1-3.2-2.3-5.8-5.5-6c-0.2,0-0.3,0-0.5,0h-64.3
		c-14.8-0.3-27,11.5-27.3,26.3s11.5,27,26.3,27.3c0.3,0,0.7,0,1,0h50.3c4.8,8.8,20.1,30.1,56.3,30.1c3.9-0.2,7.7-0.7,11.5-1.6v85
		c0,4.7-3.8,8.5-8.5,8.5H235.5c-4.7,0-8.4-3.8-8.5-8.4V23.8c0-4.7,3.8-8.5,8.5-8.5h146.2c3.2,0.1,5.8-2.3,6-5.5
		c0.1-3.2-2.3-5.8-5.5-6c-0.2,0-0.3,0-0.5,0H235.5c-11,0-19.9,8.9-19.9,19.9v147.2c0,11,8.9,19.9,19.9,19.9h295.9
		c11,0,19.9-8.9,19.9-19.9v-50.8c20.6-6.6,32.1-21.4,36.3-27.9h45.1c3.2,0,5.7-2.6,5.7-5.7V-21.3C638.5-24.4,635.9-27,632.7-27z"/>
	<path class="st0" d="M254.4,127.5V67.1c12.3-2.4,22-12,24.4-24.4h97.9c3.2-0.1,5.6-2.8,5.5-6c-0.1-3-2.5-5.4-5.5-5.5H273.6
		c-3.2,0-5.7,2.6-5.7,5.7c0,10.6-8.6,19.2-19.2,19.2l0,0c-3.1,0-5.7,2.6-5.7,5.7v70.8c0,3.2,2.6,5.7,5.7,5.7l0,0
		c10.6,0,19.2,8.6,19.2,19.2c0,3.2,2.6,5.7,5.7,5.7l0,0h219.6c3.2,0,5.7-2.6,5.7-5.7l0,0c0-10.6,8.6-19.2,19.2-19.2
		c3.2,0,5.7-2.6,5.7-5.7l0,0v-25.8c0.1-3.2-2.3-5.8-5.5-6c-3.2-0.2-5.8,2.3-6,5.5c0,0.2,0,0.3,0,0.5v20.7c-12.3,2.4-22,12-24.4,24.4
		H278.8C276.4,139.6,266.8,129.9,254.4,127.5z"/>
	<path class="st0" d="M316.2,93.3c-1.1,1.1-1.7,2.5-1.7,4c0,0.4,0,0.8,0.1,1.1c0.1,0.4,0.2,0.7,0.3,1.1c0.1,0.4,0.3,0.7,0.5,1
		s0.4,0.6,0.7,0.9c0.3,0.3,0.6,0.5,0.9,0.7s0.7,0.4,1,0.5s0.7,0.3,1.1,0.3c0.4,0.1,0.7,0.1,1.1,0.1c1.5,0,3-0.6,4-1.7
		c0.3-0.3,0.5-0.6,0.7-0.9c0.2-0.3,0.4-0.7,0.5-1c0.1-0.3,0.2-0.7,0.3-1.1c0.1-0.4,0.1-0.8,0.1-1.1c0-3.2-2.6-5.7-5.8-5.7
		C318.7,91.6,317.3,92.2,316.2,93.3L316.2,93.3z"/>
	<path class="st0" d="M441.8,100.5c0.2,0.3,0.5,0.6,0.7,0.9c2.2,2.2,5.8,2.3,8.1,0c0.3-0.3,0.5-0.6,0.7-0.9c0.2-0.3,0.4-0.6,0.5-1
		c0.1-0.3,0.3-0.7,0.3-1.1c0.1-0.4,0.1-0.7,0.1-1.1c0.1-3.2-2.3-5.8-5.5-6c-3.2-0.2-5.8,2.3-6,5.5c0,0.2,0,0.3,0,0.5
		c0,0.4,0,0.7,0.1,1.1c0.1,0.4,0.2,0.7,0.3,1.1C441.4,99.8,441.6,100.2,441.8,100.5z"/>
	<path class="st0" d="M417.7,107.1c0,3.2-2.6,5.7-5.7,5.7h-41c-1.1,1.5-1.8,3.4-1.8,5.3c0,4.9,4,8.9,8.9,8.9h8.7
		c3.6,0,7.2-1.5,9.8-4c2.2-2.2,5.8-2.2,8.1,0c2.2,2.2,2.2,5.8,0,8.1c-4.9,4.8-11.1,7.4-17.8,7.4h-8.7c-11.2,0-20.4-9.1-20.4-20.4
		c0-1.8,0.3-3.6,0.7-5.3h-3.6c-3.2,0-5.7-2.6-5.7-5.7s2.6-5.7,5.7-5.7h11.7c0.3-0.2,0.5-0.4,0.8-0.6l9.4-5.1h-21.9
		c-3.2,0-5.7-2.6-5.7-5.7c0-3.1,2.6-5.7,5.7-5.7h41c0.9-1.5,1.8-3.4,1.8-5.3c0-4.9-4-8.9-8.9-8.9h-8.7c-3.6,0-7.2,1.5-9.8,4
		c-2.2,2.2-5.8,2.2-8.1,0c-2.2-2.2-2.2-5.8,0-8.1c4.8-4.8,11.1-7.4,17.8-7.4h8.7c11.2,0,20.4,9.1,20.4,20.4c0,1.8-0.3,3.6-0.7,5.3
		h3.6c3.2,0,5.7,2.6,5.7,5.7s-2.6,5.7-5.7,5.7h-11.7c-0.3,0.2-0.5,0.4-0.8,0.6l-9.4,5.1H412C415.2,101.4,417.7,104,417.7,107.1z"/>
</g>
</svg>
