<?xml version="1.0" encoding="utf-8"?>
<!-- Generator: Adobe Illustrator 19.0.0, SVG Export Plug-In . SVG Version: 6.00 Build 0)  -->
<svg version="1.1" id="Слой_1" xmlns="http://www.w3.org/2000/svg" xmlns:xlink="http://www.w3.org/1999/xlink" x="0px" y="0px"
	 viewBox="-72 54 24 24" style="enable-background:new -72 54 24 24;" xml:space="preserve">
<style type="text/css">
	.st0{fill:#1083FF;}
</style>
<path class="st0" d="M-59,62v-5h-1v5H-59L-59,62z M-58,62h1v-3.5c0-0.7-0.4-1.2-1-1.4V62L-58,62z M-61,62v-5h-0.5
	c-0.8,0-1.5,0.7-1.5,1.5V62H-61L-61,62z M-56,60h0.5c1.4,0,2.5,1.1,2.5,2.5v11c0,1.4-1.1,2.5-2.5,2.5h-9c-1.4,0-2.5-1.1-2.5-2.5v-11
	c0-1.4,1.1-2.5,2.5-2.5h0.5v-1.5c0-1.4,1.1-2.5,2.5-2.5h3c1.4,0,2.5,1.1,2.5,2.5V60z M-64,61h-0.5c-0.8,0-1.5,0.7-1.5,1.5v11
	c0,0.8,0.7,1.5,1.5,1.5h9c0.8,0,1.5-0.7,1.5-1.5v-11c0-0.8-0.7-1.5-1.5-1.5H-56v1h0.5c0.3,0,0.5,0.2,0.5,0.5s-0.2,0.5-0.5,0.5h-9
	c-0.3,0-0.5-0.2-0.5-0.5s0.2-0.5,0.5-0.5h0.5V61z M-64.5,64h9c0.3,0,0.5,0.2,0.5,0.5v3c0,0.3-0.2,0.5-0.5,0.5h-9
	c-0.3,0-0.5-0.2-0.5-0.5v-3C-65,64.2-64.8,64-64.5,64z M-64,65v2h8v-2H-64z M-63.5,70c-0.3,0-0.5-0.2-0.5-0.5s0.2-0.5,0.5-0.5h1
	c0.3,0,0.5,0.2,0.5,0.5s-0.2,0.5-0.5,0.5H-63.5z M-60.5,70c-0.3,0-0.5-0.2-0.5-0.5s0.2-0.5,0.5-0.5h1c0.3,0,0.5,0.2,0.5,0.5
	s-0.2,0.5-0.5,0.5H-60.5z M-57.5,70c-0.3,0-0.5-0.2-0.5-0.5s0.2-0.5,0.5-0.5h1c0.3,0,0.5,0.2,0.5,0.5s-0.2,0.5-0.5,0.5H-57.5z
	 M-63.5,72c-0.3,0-0.5-0.2-0.5-0.5s0.2-0.5,0.5-0.5h1c0.3,0,0.5,0.2,0.5,0.5s-0.2,0.5-0.5,0.5H-63.5z M-60.5,72
	c-0.3,0-0.5-0.2-0.5-0.5s0.2-0.5,0.5-0.5h1c0.3,0,0.5,0.2,0.5,0.5s-0.2,0.5-0.5,0.5H-60.5z M-57.5,72c-0.3,0-0.5-0.2-0.5-0.5
	s0.2-0.5,0.5-0.5h1c0.3,0,0.5,0.2,0.5,0.5s-0.2,0.5-0.5,0.5H-57.5z M-63.5,74c-0.3,0-0.5-0.2-0.5-0.5s0.2-0.5,0.5-0.5h1
	c0.3,0,0.5,0.2,0.5,0.5s-0.2,0.5-0.5,0.5H-63.5z M-60.5,74c-0.3,0-0.5-0.2-0.5-0.5s0.2-0.5,0.5-0.5h1c0.3,0,0.5,0.2,0.5,0.5
	s-0.2,0.5-0.5,0.5H-60.5z M-57.5,74c-0.3,0-0.5-0.2-0.5-0.5s0.2-0.5,0.5-0.5h1c0.3,0,0.5,0.2,0.5,0.5s-0.2,0.5-0.5,0.5H-57.5z"/>
</svg>
