<?xml version="1.0" encoding="utf-8"?>
<!-- Generator: Adobe Illustrator 19.0.0, SVG Export Plug-In . SVG Version: 6.00 Build 0)  -->
<svg version="1.1" id="Слой_1" xmlns="http://www.w3.org/2000/svg" xmlns:xlink="http://www.w3.org/1999/xlink" x="0px" y="0px"
	 viewBox="-52 34 64 64" style="enable-background:new -52 34 64 64;" xml:space="preserve">
<style type="text/css">
	.st0{display:none;}
	.st1{display:inline;fill:#FFFFFF;}
	.st2{display:inline;}
	.st3{fill:none;stroke:#4C5159;stroke-width:2.1834;stroke-miterlimit:10;}
	.st4{display:inline;fill:none;stroke:#4C5159;stroke-width:2.1834;stroke-miterlimit:10;}
	.st5{display:inline;fill:none;stroke:#4C5159;stroke-width:2.1834;stroke-miterlimit:10;stroke-dasharray:2.1834;}
	.st6{fill:none;stroke:#4C5159;stroke-width:2.1834;stroke-miterlimit:10;stroke-dasharray:2.1678,2.1678;}
	.st7{display:inline;fill:none;stroke:#4C5159;stroke-width:2.1834;stroke-miterlimit:10;stroke-dasharray:2.1678,2.1678;}
	.st8{fill:#4C5159;}
	.st9{font-family:'Montserrat-Bold';}
	.st10{font-size:7px;}
	.st11{display:inline;fill:#74E2F0;}
	.st12{display:inline;fill:#FBDA73;}
	.st13{display:inline;fill:#F08E70;}
	.st14{fill:none;stroke:#1083FF;stroke-width:2.1834;stroke-miterlimit:10;}
	.st15{fill:#1083FF;}
</style>
<g id="bg" class="st0">
	<rect id="XMLID_119_" x="-322" y="-200.2" class="st1" width="500" height="600.3"/>
</g>
<g id="guideline" class="st0">
</g>
<g id="XMLID_66_" class="st0">
	<g id="XMLID_25_" class="st2">
		<g id="XMLID_16_">
			<g id="XMLID_7_">
				<path id="XMLID_8_" class="st3" d="M-84.9,77.1l10.3,10.3c1,1,1,2.6,0,3.6l-6.3,6.3c-1,1-2.6,1-3.6,0l-10.4-10.2"/>
				<line id="XMLID_9_" class="st3" x1="-90.8" y1="84" x2="-83.6" y2="91.2"/>
				<line id="XMLID_13_" class="st3" x1="-87.7" y1="80.9" x2="-80.5" y2="88.1"/>
			</g>
			<line id="XMLID_29_" class="st3" x1="-75.9" y1="99.1" x2="-77.9" y2="97.2"/>
			<path id="XMLID_14_" class="st3" d="M-65.2,103.7l16,16c0.1,0.1,0.1,0.2,0,0.3l-2.7,2.7c-0.1,0.1-0.2,0.1-0.3,0l-16.7-16.6"/>
			<line id="XMLID_21_" class="st3" x1="-74.8" y1="94.1" x2="-73" y2="95.9"/>
		</g>
		<g id="XMLID_4_">
			<path id="XMLID_15_" class="st3" d="M-76.5,102.9l25.2-25.2c0,0,0.1,0,0.1,0.1l-0.8,5.6c-0.4,2.9-1.9,5.7-3.9,7.8l-12.6,12.7
				l-2.4-0.7l-2.6,2.6"/>
			<path id="XMLID_17_" class="st3" d="M-90.3,122.3l-2.5-2.5c-0.1-0.1-0.1-0.3,0-0.4l15.2-15.2l2.9,2.9l-15.2,15.2
				C-90,122.4-90.2,122.4-90.3,122.3z"/>
		</g>
	</g>
	<g id="XMLID_52_" class="st2">
		<line id="XMLID_58_" class="st3" x1="-94.9" y1="101.3" x2="-92.7" y2="101.3"/>
		<line id="XMLID_57_" class="st3" x1="-90.8" y1="101.3" x2="-88.6" y2="101.3"/>
		<line id="XMLID_53_" class="st3" x1="-86.6" y1="101.3" x2="-84.3" y2="101.3"/>
	</g>
	<g id="XMLID_59_" class="st2">
		<line id="XMLID_65_" class="st3" x1="-60.5" y1="101.3" x2="-58.2" y2="101.3"/>
		<line id="XMLID_64_" class="st3" x1="-56.3" y1="101.3" x2="-54.1" y2="101.3"/>
		<line id="XMLID_62_" class="st3" x1="-52.1" y1="101.3" x2="-49.9" y2="101.3"/>
	</g>
</g>
<g id="XMLID_75_" class="st0">
	<g id="XMLID_74_" class="st2">
		<g id="XMLID_558_">
			<path id="XMLID_562_" class="st3" d="M-88.8,124.9V116c0-0.9,0.5-1.5,1.3-1.9l10.8-3.7v-6"/>
			<path id="XMLID_561_" class="st3" d="M-55.1,124.9V116c0-0.9-0.5-1.5-1.3-1.9l-10.8-3.7v-6"/>
			<path id="XMLID_72_" class="st3" d="M-80.1,92l0.8,8.5c0.1,1.3,0.9,2.5,2.1,3.1l3.9,2.6h2.6l4-2.6c1.2-0.7,2-1.7,2.1-3.1l0.8-8.5
				"/>
			<polyline id="XMLID_70_" class="st3" points="-67.1,110.6 -73.1,115.9 -73.1,124.9 			"/>
			<line id="XMLID_69_" class="st3" x1="-76.8" y1="110.6" x2="-72" y2="114.7"/>
		</g>
		<line id="XMLID_556_" class="st3" x1="-92.9" y1="124.9" x2="-51.1" y2="124.9"/>
		<line id="XMLID_73_" class="st3" x1="-71" y1="118.6" x2="-69.1" y2="118.6"/>
		<line id="XMLID_71_" class="st3" x1="-71" y1="122.8" x2="-69.1" y2="122.8"/>
	</g>
	<path id="XMLID_84_" class="st4" d="M-61.3,81.6c0-2.2-1.9-4-4-4c-0.4,0-0.9,0.1-1.2,0.2c-1.1-1.6-2.8-2.7-4.9-2.7
		s-3.8,1.1-4.9,2.7c-0.4-0.1-0.8-0.2-1.2-0.2c-2.2,0-4,1.9-4,4c0,2.8,1.6,3.9,1.6,3.9v4.1h16.3v-4.1C-63.8,85.5-61.3,84.4-61.3,81.6
		z"/>
	<line id="XMLID_76_" class="st4" x1="-79.6" y1="85.3" x2="-73.1" y2="85.3"/>
</g>
<g id="XMLID_98_" class="st0">
	<g id="XMLID_77_" class="st2">
		<path id="XMLID_86_" class="st3" d="M-95.8,121.3v-5.9c0-0.9,0.5-1.6,1.3-1.9l10.9-3.7v-4.3"/>
		<path id="XMLID_85_" class="st3" d="M-61.6,121.3v-5.9c0-0.9-0.5-1.6-1.3-1.9l-10.9-3.7v-4.3"/>
		<path id="XMLID_83_" class="st3" d="M-70.5,90.7l-0.1,2.7c0.9,0.1,1.5,1,1.3,1.9l-0.1,0.3c-0.2,0.8-0.8,1.4-1.5,1.6l-0.3,4.4
			c-0.1,1.3-0.9,2.5-2.1,3.2l-4.1,2.6H-80l-4-2.6c-1.2-0.7-2-1.9-2.1-3.2l-0.3-4.4c-0.9-0.1-1.6-0.8-1.9-1.6v-0.3
			c-0.2-1,0.4-1.9,1.4-1.9h0.1l-0.1-2.7h9.6c2.4,0,4.4-2,4.4-4.4"/>
		<polyline id="XMLID_82_" class="st3" points="-83.6,109.8 -79.5,114 -78,114 -74,109.8 		"/>
		<path id="XMLID_80_" class="st3" d="M-67.6,92.8v-4.1c0-6.1-4.9-11-11-11l0,0c-6.1,0-11,4.9-11,11v4.1"/>
		<line id="XMLID_79_" class="st3" x1="-89.8" y1="98.1" x2="-89.8" y2="111.8"/>
		<line id="XMLID_78_" class="st3" x1="-67.6" y1="98.6" x2="-67.6" y2="112.2"/>
	</g>
	<line id="XMLID_88_" class="st4" x1="-98.2" y1="122.4" x2="-45.8" y2="122.4"/>
	<path id="XMLID_89_" class="st4" d="M-58.6,120.6c0-2.5,2.1-4.6,4.6-4.6s4.6,2.1,4.6,4.6"/>
	<line id="XMLID_92_" class="st4" x1="-53.9" y1="112.8" x2="-53.9" y2="115.6"/>
	<line id="XMLID_94_" class="st4" x1="-89.7" y1="119.1" x2="-84.3" y2="119.1"/>
	<line id="XMLID_97_" class="st4" x1="-79.9" y1="116.8" x2="-77.9" y2="116.8"/>
	<line id="XMLID_87_" class="st4" x1="-79.9" y1="120.1" x2="-77.9" y2="120.1"/>
	<line id="XMLID_101_" class="st4" x1="-53.9" y1="106.8" x2="-53.9" y2="111.4"/>
	<line id="XMLID_102_" class="st4" x1="-60" y1="109.3" x2="-56.6" y2="112.6"/>
	<line id="XMLID_100_" class="st4" x1="-47.9" y1="109.3" x2="-51.1" y2="112.6"/>
</g>
<g id="XMLID_154_" class="st0">
	<line id="XMLID_105_" class="st4" x1="-96.3" y1="124.9" x2="-47.7" y2="124.9"/>
	<polyline id="XMLID_104_" class="st4" points="-88.5,112.9 -88.5,91.4 -55.7,91.4 -55.7,112.9 	"/>
	<polyline id="XMLID_106_" class="st4" points="-77.6,124.9 -77.6,115.7 -66.8,115.7 -66.8,124.9 	"/>
	<polyline id="XMLID_103_" class="st4" points="-88.5,91 -90.7,87.8 -90.7,84.5 -53.6,84.5 -53.6,87.4 -55.7,91 	"/>
	<line id="XMLID_107_" class="st4" x1="-90.7" y1="87.8" x2="-73.7" y2="87.8"/>
	<line id="XMLID_109_" class="st4" x1="-72.1" y1="116.2" x2="-72.1" y2="124.9"/>
	<g id="XMLID_115_" class="st2">
		<line id="XMLID_110_" class="st3" x1="-84.6" y1="97.8" x2="-82.3" y2="97.8"/>
		<line id="XMLID_108_" class="st3" x1="-80.2" y1="97.8" x2="-77.9" y2="97.8"/>
		<line id="XMLID_111_" class="st3" x1="-75.8" y1="97.8" x2="-73.5" y2="97.8"/>
		<line id="XMLID_112_" class="st3" x1="-71.5" y1="97.8" x2="-69.2" y2="97.8"/>
		<line id="XMLID_113_" class="st3" x1="-67.1" y1="97.8" x2="-64.8" y2="97.8"/>
		<line id="XMLID_114_" class="st3" x1="-62.7" y1="97.8" x2="-60.4" y2="97.8"/>
	</g>
	<g id="XMLID_116_" class="st2">
		<line id="XMLID_123_" class="st3" x1="-84.6" y1="102.2" x2="-82.3" y2="102.2"/>
		<line id="XMLID_122_" class="st3" x1="-80.2" y1="102.2" x2="-77.9" y2="102.2"/>
		<line id="XMLID_121_" class="st3" x1="-75.8" y1="102.2" x2="-73.5" y2="102.2"/>
		<line id="XMLID_120_" class="st3" x1="-71.5" y1="102.2" x2="-69.2" y2="102.2"/>
		<line id="XMLID_118_" class="st3" x1="-67.1" y1="102.2" x2="-64.8" y2="102.2"/>
		<line id="XMLID_117_" class="st3" x1="-62.7" y1="102.2" x2="-60.4" y2="102.2"/>
	</g>
	<g id="XMLID_124_" class="st2">
		<line id="XMLID_130_" class="st3" x1="-84.6" y1="106.6" x2="-82.3" y2="106.6"/>
		<line id="XMLID_129_" class="st3" x1="-80.2" y1="106.6" x2="-77.9" y2="106.6"/>
		<line id="XMLID_128_" class="st3" x1="-75.8" y1="106.6" x2="-73.5" y2="106.6"/>
		<line id="XMLID_127_" class="st3" x1="-71.5" y1="106.6" x2="-69.2" y2="106.6"/>
		<line id="XMLID_126_" class="st3" x1="-67.1" y1="106.6" x2="-64.8" y2="106.6"/>
		<line id="XMLID_125_" class="st3" x1="-62.7" y1="106.6" x2="-60.4" y2="106.6"/>
	</g>
	<g id="XMLID_131_" class="st2">
		<line id="XMLID_137_" class="st3" x1="-84.6" y1="110.9" x2="-82.3" y2="110.9"/>
		<line id="XMLID_136_" class="st3" x1="-80.2" y1="110.9" x2="-77.9" y2="110.9"/>
		<line id="XMLID_135_" class="st3" x1="-75.8" y1="110.9" x2="-73.5" y2="110.9"/>
		<line id="XMLID_134_" class="st3" x1="-71.5" y1="110.9" x2="-69.2" y2="110.9"/>
		<line id="XMLID_133_" class="st3" x1="-67.1" y1="110.9" x2="-64.8" y2="110.9"/>
		<line id="XMLID_132_" class="st3" x1="-62.7" y1="110.9" x2="-60.4" y2="110.9"/>
	</g>
	<g id="XMLID_138_" class="st2">
		<line id="XMLID_144_" class="st3" x1="-84.6" y1="115.3" x2="-82.3" y2="115.3"/>
		<line id="XMLID_139_" class="st3" x1="-62.7" y1="115.3" x2="-60.4" y2="115.3"/>
	</g>
	<g id="XMLID_140_" class="st2">
		<line id="XMLID_142_" class="st3" x1="-84.6" y1="119.7" x2="-82.3" y2="119.7"/>
		<line id="XMLID_141_" class="st3" x1="-62.7" y1="119.7" x2="-60.4" y2="119.7"/>
	</g>
	<g id="XMLID_145_" class="st2">
		<circle id="XMLID_143_" class="st3" cx="-88.5" cy="117.6" r="2.7"/>
		<line id="XMLID_146_" class="st3" x1="-88.5" y1="119.7" x2="-88.5" y2="124.5"/>
	</g>
	<g id="XMLID_147_" class="st2">
		<circle id="XMLID_150_" class="st3" cx="-55.7" cy="117.6" r="2.7"/>
		<line id="XMLID_148_" class="st3" x1="-55.7" y1="119.7" x2="-55.7" y2="124.5"/>
	</g>
	<rect id="XMLID_151_" x="-87.2" y="75.1" class="st4" width="30" height="6"/>
	<line id="XMLID_153_" class="st4" x1="-82.3" y1="81.1" x2="-82.3" y2="83.6"/>
	<line id="XMLID_152_" class="st4" x1="-62.6" y1="81.1" x2="-62.6" y2="83.6"/>
</g>
<g id="XMLID_195_" class="st0">
	<g id="XMLID_187_" class="st2">
		<line id="XMLID_190_" class="st3" x1="-96.6" y1="82.1" x2="-94.1" y2="82.1"/>
		<line id="XMLID_189_" class="st3" x1="-91.8" y1="82.1" x2="-89.2" y2="82.1"/>
		<line id="XMLID_188_" class="st3" x1="-87" y1="82.1" x2="-84.4" y2="82.1"/>
	</g>
	<g id="XMLID_191_" class="st2">
		<line id="XMLID_194_" class="st3" x1="-59.6" y1="82.1" x2="-57" y2="82.1"/>
		<line id="XMLID_193_" class="st3" x1="-54.8" y1="82.1" x2="-52.2" y2="82.1"/>
		<line id="XMLID_192_" class="st3" x1="-49.9" y1="82.1" x2="-47.4" y2="82.1"/>
	</g>
	<g id="XMLID_181_" class="st2">
		<path id="XMLID_90_" class="st3" d="M-53.9,116.5h-35.5c-0.7,0-1.2-0.5-1.2-1.2v-10.9c0-0.7,0.5-1.2,1.2-1.2l14.3,2.3h6.9
			l14.3-2.2c0.7,0,1.2,0.5,1.2,1.2v10.9C-52.7,116-53.2,116.5-53.9,116.5z"/>
		<path id="XMLID_93_" class="st3" d="M-51.4,116.5h-40c-0.7,0-1.1,0.4-1.1,1.1v2.2c0,0.7,0.4,1.1,1.1,1.1h39.9
			c0.7,0,1.1-0.4,1.1-1.1v-2.2C-50.3,117-50.8,116.5-51.4,116.5z"/>
		<path id="XMLID_158_" class="st3" d="M-82.2,121.7v3.1c0,0.1-0.1,0.2-0.2,0.2H-89c-0.1,0-0.2-0.1-0.2-0.2v-3.1"/>
		<path id="XMLID_156_" class="st3" d="M-53.7,121.7v3.1c0,0.1-0.1,0.2-0.2,0.2h-6.6c-0.1,0-0.2-0.1-0.2-0.2v-3.1"/>
		<g id="XMLID_177_">
			<line id="XMLID_162_" class="st3" x1="-77.8" y1="108.8" x2="-75.7" y2="108.8"/>
			<line id="XMLID_170_" class="st3" x1="-74.3" y1="108.8" x2="-72.3" y2="108.8"/>
			<line id="XMLID_175_" class="st3" x1="-70.9" y1="108.8" x2="-68.8" y2="108.8"/>
			<line id="XMLID_176_" class="st3" x1="-67.4" y1="108.8" x2="-65.4" y2="108.8"/>
		</g>
		<g id="XMLID_161_">
			<line id="XMLID_180_" class="st3" x1="-77.8" y1="112.3" x2="-75.7" y2="112.3"/>
			<line id="XMLID_179_" class="st3" x1="-74.3" y1="112.3" x2="-72.3" y2="112.3"/>
			<line id="XMLID_178_" class="st3" x1="-70.9" y1="112.3" x2="-68.8" y2="112.3"/>
			<line id="XMLID_163_" class="st3" x1="-67.4" y1="112.3" x2="-65.4" y2="112.3"/>
		</g>
		<circle id="XMLID_165_" class="st3" cx="-51.4" cy="101.9" r="2.4"/>
		<circle id="XMLID_164_" class="st3" cx="-92.4" cy="101.9" r="2.4"/>
		<path id="XMLID_169_" class="st3" d="M-89.2,102.3l4.3-9.9c0.2-0.4,0.7-0.7,1.1-0.7H-59c0.4,0,0.9,0.3,1.1,0.7l4.3,9.9H-89.2z"/>
		<polyline id="XMLID_160_" class="st3" points="-62.4,113.1 -62.4,108.3 -55.5,108.3 -55.5,113.1 		"/>
		<polyline id="XMLID_166_" class="st3" points="-87.6,113.1 -87.6,108.3 -80.7,108.3 -80.7,113.1 		"/>
	</g>
	<g id="XMLID_186_" class="st2">
		<g id="XMLID_184_">
			<line id="XMLID_183_" class="st3" x1="-74.3" y1="77.7" x2="-74.3" y2="85.6"/>
			<path id="XMLID_182_" class="st3" d="M-70.8,81.3h-3.6v-3.6h3.6c0.8,0,1.5,0.7,1.5,1.5v0.7C-69.3,80.7-69.9,81.3-70.8,81.3z"/>
		</g>
		<path id="XMLID_185_" class="st3" d="M-64.7,88.3h-14.2c-0.1,0-0.2-0.1-0.2-0.2V75.2c0-0.1,0.1-0.2,0.2-0.2h14.2
			c0.1,0,0.2,0.1,0.2,0.2V88C-64.5,88.2-64.6,88.3-64.7,88.3z"/>
	</g>
</g>
<g id="XMLID_210_" class="st0">
	<g id="XMLID_447_" class="st2">
		<line id="XMLID_453_" class="st3" x1="-82.6" y1="110.7" x2="-61" y2="110.7"/>
		<path id="XMLID_404_" class="st3" d="M-82.8,121.9H-87c-0.1,0-0.2-0.1-0.2-0.2v-16.5c0-0.1,0.1-0.2,0.2-0.2h4.1
			c0.1,0,0.2,0.1,0.2,0.2v16.6C-82.6,121.8-82.7,121.9-82.8,121.9z"/>
		<path id="XMLID_411_" class="st3" d="M-87.8,119.8h-3.4c-0.1,0-0.3-0.1-0.3-0.3v-12c0-0.1,0.1-0.3,0.3-0.3h3.4"/>
		<path id="XMLID_424_" class="st3" d="M-91.8,117h-3.4c-0.1,0-0.2-0.1-0.2-0.2v-6.7c0-0.1,0.1-0.2,0.2-0.2h3.4"/>
		<path id="XMLID_450_" class="st3" d="M-61.2,121.9h4.2c0.1,0,0.2-0.1,0.2-0.2v-16.5c0-0.1-0.1-0.2-0.2-0.2h-4.1
			c-0.1,0-0.2,0.1-0.2,0.2v16.6C-61.4,121.8-61.3,121.9-61.2,121.9z"/>
		<path id="XMLID_449_" class="st3" d="M-56.2,119.8h3.4c0.1,0,0.3-0.1,0.3-0.3v-12c0-0.1-0.1-0.3-0.3-0.3h-3.4"/>
		<path id="XMLID_448_" class="st3" d="M-52.2,117h3.4c0.1,0,0.2-0.1,0.2-0.2v-6.7c0-0.1-0.1-0.2-0.2-0.2h-3.4"/>
		<line id="XMLID_407_" class="st3" x1="-82.6" y1="115.9" x2="-61" y2="115.9"/>
	</g>
	<path id="XMLID_355_" class="st4" d="M-56.5,98.6h-25.1c-0.1,0-0.2-0.1-0.2-0.2v-5.1c0-0.1,0.1-0.2,0.2-0.2h25.1
		c0.1,0,0.2,0.1,0.2,0.2v5.1C-56.3,98.5-56.4,98.6-56.5,98.6z"/>
	<path id="XMLID_353_" class="st4" d="M-56.5,83.6h-25.1c-0.1,0-0.2-0.1-0.2-0.2v-5.1c0-0.1,0.1-0.2,0.2-0.2h25.1
		c0.1,0,0.2,0.1,0.2,0.2v5.1C-56.3,83.5-56.4,83.6-56.5,83.6z"/>
	<line id="XMLID_197_" class="st4" x1="-56.3" y1="83.4" x2="-71.9" y2="93"/>
	<line id="XMLID_172_" class="st4" x1="-81.7" y1="93.2" x2="-65" y2="83.6"/>
	<line id="XMLID_199_" class="st4" x1="-56.5" y1="98.6" x2="-72" y2="107.8"/>
	<line id="XMLID_198_" class="st4" x1="-79.6" y1="106" x2="-66.2" y2="98.6"/>
	<line id="XMLID_200_" class="st4" x1="-76.9" y1="78.1" x2="-76.9" y2="80.7"/>
	<line id="XMLID_159_" class="st4" x1="-71.9" y1="78.1" x2="-71.9" y2="80.7"/>
	<line id="XMLID_201_" class="st4" x1="-66.8" y1="78.1" x2="-66.8" y2="80.7"/>
	<line id="XMLID_202_" class="st4" x1="-61.7" y1="78.1" x2="-61.7" y2="80.7"/>
	<line id="XMLID_208_" class="st4" x1="-76.9" y1="93.1" x2="-76.9" y2="95.7"/>
	<line id="XMLID_205_" class="st4" x1="-71.9" y1="93.1" x2="-71.9" y2="95.7"/>
	<line id="XMLID_204_" class="st4" x1="-66.8" y1="93.1" x2="-66.8" y2="95.7"/>
	<line id="XMLID_203_" class="st4" x1="-61.7" y1="93.1" x2="-61.7" y2="95.7"/>
</g>
<g id="XMLID_264_" class="st0">
	<g id="XMLID_242_" class="st2">
		<path id="XMLID_267_" class="st3" d="M-62.1,87.4H-82L-84.4,76c0-0.1,0.1-0.2,0.2-0.1l6.3,4.1l5.9-4.3h0.1l5.3,4.3l6.9-4.1
			c0.1-0.1,0.2,0,0.2,0.1L-62.1,87.4z"/>
		<polyline id="XMLID_252_" class="st3" points="-61.8,89.3 -61.8,92.4 -81.9,92.4 -81.9,89.3 		"/>
		<line id="XMLID_248_" class="st3" x1="-77.2" y1="83.3" x2="-75.5" y2="83.3"/>
		<line id="XMLID_247_" class="st3" x1="-72.9" y1="83.3" x2="-71" y2="83.3"/>
		<line id="XMLID_246_" class="st3" x1="-68.4" y1="83.3" x2="-66.7" y2="83.3"/>
	</g>
	<g id="XMLID_257_" class="st2">
		<path id="XMLID_233_" class="st3" d="M-55.5,109.1h-33c-1.5,0-2.8,1.3-2.8,2.8v3.3v4.3v4.5c0,0.1,0.1,0.2,0.2,0.2h2.5
			c0.1,0,0.2-0.1,0.2-0.2v-4.4c0-0.1,0.1-0.2,0.2-0.2h32.4c0.1,0.1,0.1,0.2,0.1,0.2v4.4c0,0.1,0.1,0.2,0.2,0.2h2.5
			c0.1,0,0.2-0.1,0.2-0.2v-4.5v-4.3V112C-52.7,110.4-53.9,109.1-55.5,109.1z"/>
		<path id="XMLID_234_" class="st3" d="M-59.9,95.7c0.5,0,0.9,0.4,1,0.9c0.3,1.3,1.3,2.3,2.6,2.6c0.4,0.1,0.9,0.5,0.9,1v8.8h-33.3
			v-8.8c0-0.5,0.4-0.9,0.9-1c1.3-0.3,2.3-1.3,2.6-2.6c0.1-0.4,0.5-0.9,1-0.9C-84.2,95.7-59.9,95.7-59.9,95.7z"/>
		<path id="XMLID_231_" class="st3" d="M-76,104.5h-7.9c-1.1,0-1.9,0.9-1.9,1.9v2.7h11.6v-2.7C-74.2,105.2-74.9,104.5-76,104.5z"/>
		<path id="XMLID_243_" class="st3" d="M-60.5,104.5h-7.9c-1.1,0-1.9,0.9-1.9,1.9v2.7h11.6v-2.7C-58.7,105.2-59.4,104.5-60.5,104.5z
			"/>
		<line id="XMLID_245_" class="st3" x1="-91.3" y1="115.7" x2="-65" y2="115.7"/>
		<line id="XMLID_256_" class="st3" x1="-80.6" y1="99.6" x2="-63.4" y2="99.6"/>
	</g>
</g>
<g id="XMLID_226_" class="st0">
	<path id="XMLID_259_" class="st4" d="M-52.2,98.9h-39.5c-1.9,0-3.4,1.5-3.4,3.4v3.9v5.1v5.3c0,0.1,0.1,0.2,0.2,0.2h2.9
		c0.1,0,0.2-0.1,0.2-0.2v-5.1c0-0.1,0.1-0.2,0.2-0.2h38.8c0.1,0,0.2,0.1,0.2,0.2v5.1c0,0.1,0.1,0.2,0.2,0.2h2.9
		c0.1,0,0.2-0.1,0.2-0.2v-5.3v-5.1v-3.9C-48.9,100.4-50.4,98.9-52.2,98.9z"/>
	<path id="XMLID_258_" class="st4" d="M-57.5,83c0.7,0,1.1,0.5,1.2,1.1c0.4,1.5,1.5,2.7,3.1,3.1c0.5,0.1,1.1,0.7,1.1,1.2V99h-39.7
		V88.3c0-0.7,0.5-1.1,1.1-1.2c1.5-0.4,2.7-1.5,3.1-3.1c0.1-0.5,0.7-1.1,1.2-1.1L-57.5,83L-57.5,83z"/>
	<path id="XMLID_255_" class="st4" d="M-76.5,93.4h-10c-1.1,0-1.9,0.9-1.9,1.9v3.6h13.9v-3.6C-74.5,94.2-75.4,93.4-76.5,93.4z"/>
	<path id="XMLID_254_" class="st4" d="M-57.9,93.4h-10c-1.1,0-1.9,0.9-1.9,1.9v3.6H-56v-3.6C-56.1,94.2-56.9,93.4-57.9,93.4z"/>
	<line id="XMLID_253_" class="st4" x1="-95.1" y1="106.9" x2="-63.7" y2="106.9"/>
	<line id="XMLID_229_" class="st4" x1="-82.3" y1="87.6" x2="-61.7" y2="87.6"/>
</g>
<g id="XMLID_250_" class="st0">
	<g id="XMLID_225_" class="st2">
		<path id="XMLID_99_" class="st3" d="M-64,103.3c2.8,0,5,2.3,5,5.1v10c0,0.1-0.1,0.2-0.2,0.2h-38c-0.1,0-0.2-0.1-0.2-0.2v-10
			c0-2.8,2.3-5.1,5-5.1v10.2h28.3v-10.2H-64z"/>
		<path id="XMLID_212_" class="st3" d="M-92.7,101.6L-92.7,101.6c0-2.8,2.3-5.2,5.2-5.2h18.8c2.8,0,5.2,2.3,5.2,5.2l0,0"/>
		<line id="XMLID_213_" class="st3" x1="-89.9" y1="108.6" x2="-66.7" y2="108.6"/>
		<line id="XMLID_214_" class="st3" x1="-87.2" y1="100.8" x2="-85.3" y2="100.8"/>
		<line id="XMLID_68_" class="st3" x1="-81.8" y1="100.8" x2="-79.9" y2="100.8"/>
		<line id="XMLID_215_" class="st3" x1="-76.4" y1="100.8" x2="-74.5" y2="100.8"/>
		<line id="XMLID_216_" class="st3" x1="-71" y1="100.8" x2="-69.1" y2="100.8"/>
		<line id="XMLID_222_" class="st3" x1="-87.2" y1="105" x2="-85.3" y2="105"/>
		<line id="XMLID_221_" class="st3" x1="-81.8" y1="105" x2="-79.9" y2="105"/>
		<line id="XMLID_220_" class="st3" x1="-76.4" y1="105" x2="-74.5" y2="105"/>
		<line id="XMLID_217_" class="st3" x1="-71" y1="105" x2="-69.1" y2="105"/>
		<line id="XMLID_224_" class="st3" x1="-92.7" y1="118.6" x2="-92.7" y2="121.6"/>
		<line id="XMLID_223_" class="st3" x1="-64.7" y1="118.6" x2="-64.7" y2="121.6"/>
	</g>
	<path id="XMLID_232_" class="st4" d="M-49.5,90.3h-18.9c-0.1,0-0.2-0.1-0.2-0.2V78.6c0-0.1,0.1-0.2,0.2-0.2h18.9
		c0.1,0,0.2,0.1,0.2,0.2v11.6C-49.3,90.3-49.4,90.3-49.5,90.3z"/>
	<polyline id="XMLID_236_" class="st4" points="-52.2,86.4 -64.6,86.4 -64.6,80.6 	"/>
	<g id="XMLID_237_" class="st2">
		<line id="XMLID_228_" class="st3" x1="-56.5" y1="112.2" x2="-46.6" y2="112.2"/>
		<line id="XMLID_230_" class="st3" x1="-51.5" y1="112.2" x2="-51.5" y2="121.6"/>
		<line id="XMLID_235_" class="st3" x1="-53.6" y1="108.1" x2="-53.6" y2="111.2"/>
		<line id="XMLID_227_" class="st3" x1="-50.2" y1="109.7" x2="-50.2" y2="111.2"/>
	</g>
	<line id="XMLID_239_" class="st4" x1="-97.3" y1="89.2" x2="-72.8" y2="89.2"/>
	<line id="XMLID_240_" class="st4" x1="-93.1" y1="80.1" x2="-93.1" y2="89.2"/>
	<line id="XMLID_238_" class="st4" x1="-89.7" y1="80.1" x2="-89.7" y2="89.2"/>
	<line id="XMLID_241_" class="st4" x1="-86.3" y1="82" x2="-86.3" y2="89.2"/>
	<line id="XMLID_244_" class="st4" x1="-82.9" y1="80.1" x2="-82.9" y2="89.2"/>
	<line id="XMLID_249_" class="st4" x1="-81.8" y1="81.6" x2="-75.4" y2="87.8"/>
</g>
<g id="XMLID_260_" class="st0">
	<path id="XMLID_278_" class="st4" d="M-54.6,100.9h-34.7c-0.1,0-0.2,0.1-0.2,0.2v4.8v5.8v6.1c0,0.1,0.1,0.2,0.2,0.2h3.5
		c0.1,0,0.2-0.1,0.2-0.2V112c0-0.1,0.1-0.2,0.2-0.2h26.6c0.1,0,0.2,0.1,0.2,0.2v5.9c0,0.1,0.1,0.2,0.2,0.2h3.5
		c0.1,0,0.2-0.1,0.2-0.2v-6.1V106v-4.9C-54.4,101-54.5,100.9-54.6,100.9z"/>
	<path id="XMLID_273_" class="st4" d="M-86,98.7V88c0-0.7,0.5-1.2,1.2-1.4c1.7-0.4,3.1-1.7,3.5-3.5c0.2-0.7,0.8-1.2,1.4-1.2h15.6
		c0.7,0,1.2,0.5,1.4,1.2c0.4,1.7,1.7,3.1,3.5,3.5c0.7,0.2,1.2,0.8,1.2,1.4v10.7"/>
	<path id="XMLID_263_" class="st4" d="M-64.1,98.7v-4.4c0-1.1-0.9-1.9-1.9-1.9h-12c-1.1,0-1.9,0.9-1.9,1.9v4.4"/>
	<line id="XMLID_262_" class="st4" x1="-89.6" y1="107.9" x2="-62.6" y2="107.9"/>
	<line id="XMLID_266_" class="st4" x1="-79.4" y1="87" x2="-77.5" y2="87"/>
	<line id="XMLID_261_" class="st4" x1="-75.1" y1="87" x2="-73.1" y2="87"/>
	<line id="XMLID_271_" class="st4" x1="-70.7" y1="87" x2="-68.7" y2="87"/>
	<line id="XMLID_272_" class="st4" x1="-66.3" y1="87" x2="-64.4" y2="87"/>
</g>
<g id="XMLID_283_" class="st0">
	<path id="XMLID_268_" class="st4" d="M-75.7,111.9l-9.7-8.5c-1-0.9-1.5-2.1-1.5-3.4v-8.6l2.3-2.3l-2.2-2.2V75.4h1l9.2,9.7
		c0.1,0.1,0.2,0.1,0.3,0.1h9c0.1,0,0.2,0,0.3-0.1l9.2-9.7h1v11.5l-2.3,2.3l2.3,2.3v8.5c0,1.3-0.5,2.5-1.5,3.4l-9.7,8.5
		C-68.2,111.9-75.7,111.9-75.7,111.9z"/>
	<path id="XMLID_276_" class="st4" d="M-63.9,111.9h5c0.1,0,0.2,0.1,0.2,0.2v4.3c0,0.1-0.1,0.2-0.2,0.2h-26.2
		c-0.1,0-0.2-0.1-0.2-0.2v-4.3c0-0.1,0.1-0.2,0.2-0.2h5.2"/>
	<circle id="XMLID_275_" class="st4" cx="-72" cy="120.5" r="3.9"/>
	<line id="XMLID_281_" class="st4" x1="-79.5" y1="93.7" x2="-75.9" y2="93.7"/>
	<line id="XMLID_280_" class="st4" x1="-67.5" y1="93.7" x2="-63.9" y2="93.7"/>
	<polyline id="XMLID_282_" class="st4" points="-75.6,100.5 -69.3,100.5 -69.3,102 -71.9,104.8 -73.5,104.8 	"/>
</g>
<g id="XMLID_315_" class="st0">
	<g id="XMLID_304_" class="st2">
		<line id="XMLID_314_" class="st3" x1="-88.6" y1="82.9" x2="-86.3" y2="82.9"/>
		<line id="XMLID_313_" class="st3" x1="-84.2" y1="82.9" x2="-81.9" y2="82.9"/>
		<line id="XMLID_312_" class="st3" x1="-79.9" y1="82.9" x2="-77.6" y2="82.9"/>
		<line id="XMLID_311_" class="st3" x1="-75.5" y1="82.9" x2="-73.2" y2="82.9"/>
		<line id="XMLID_310_" class="st3" x1="-71.1" y1="82.9" x2="-68.8" y2="82.9"/>
	</g>
	<g id="XMLID_300_" class="st2">
		<g id="XMLID_292_">
			<g id="XMLID_299_">
				<path id="XMLID_465_" class="st3" d="M-76,122.3h-15.6c-0.1,0-0.1,0-0.1-0.1l-2.8-15.6c0-0.1,0-0.1,0.1-0.1h21.2
					c0.1,0,0.1,0.1,0.1,0.1l-2.9,15.6C-75.9,122.3-75.9,122.3-76,122.3z"/>
				<path id="XMLID_467_" class="st3" d="M-73.9,120.6h2.6l0,0c0,2.2-1.7,3.9-3.9,3.9h-17.4c-2.2,0-3.9-1.7-3.9-3.9l0,0h2.6"/>
				<path id="XMLID_468_" class="st3" d="M-73.4,110.6h1.5c1.7,0,3.2,1.4,3.2,3.2l0,0c0,1.7-1.4,3.2-3.2,3.2h-2.8"/>
			</g>
			<line id="XMLID_297_" class="st3" x1="-76.5" y1="93.6" x2="-87" y2="93.6"/>
			<path id="XMLID_296_" class="st3" d="M-84.9,104.9v-0.7c0-1.2-1-2.1-2.1-2.1h-4.6c-1.3,0-2.3-1.1-2.3-2.3l0,0
				c0-1.3,1.1-2.3,2.3-2.3H-75c1.1,0,2-0.9,2-2l0,0c0-1.1-0.9-2-2-2"/>
			<path id="XMLID_294_" class="st3" d="M-81.2,104.9v-1.3c0-1.6,1.3-2.9,2.9-2.9h3.5"/>
		</g>
		<path id="XMLID_356_" class="st3" d="M-56.3,124.7h8.4c0.1,0,0.2-0.1,0.2-0.2V95.6c0-2.5-2.1-4.6-4.6-4.6l0,0V75.3h-5.5V91l0,0
			c-2.5,0-4.6,2.1-4.6,4.6"/>
		<line id="XMLID_503_" class="st3" x1="-60" y1="79.5" x2="-49.6" y2="79.5"/>
		<line id="XMLID_502_" class="st3" x1="-60" y1="82.9" x2="-49.6" y2="82.9"/>
		<polyline id="XMLID_512_" class="st3" points="-47.5,102.7 -55.2,102.7 -55.2,116.7 -47.5,116.7 		"/>
		<line id="XMLID_514_" class="st3" x1="-51.8" y1="106.6" x2="-48.3" y2="106.6"/>
		<line id="XMLID_504_" class="st3" x1="-51.8" y1="109.6" x2="-48.3" y2="109.6"/>
		<line id="XMLID_515_" class="st3" x1="-51.8" y1="112.7" x2="-48.3" y2="112.7"/>
		<g id="XMLID_302_">
			<path id="XMLID_331_" class="st3" d="M-62.6,112.7L-62.6,112.7c-2.3,0-4.3-1.9-4.3-4.3V97.8h8.5v10.6
				C-58.4,110.7-60.2,112.7-62.6,112.7z"/>
			<line id="XMLID_330_" class="st3" x1="-62.6" y1="112.7" x2="-62.6" y2="124.7"/>
			<line id="XMLID_329_" class="st3" x1="-67.7" y1="124.7" x2="-57.7" y2="124.7"/>
		</g>
	</g>
</g>
<g id="XMLID_308_" class="st0">
	<circle id="XMLID_301_" class="st4" cx="-64.9" cy="95.1" r="2.4"/>
	<path id="XMLID_285_" class="st4" d="M-78,111.7c0-7.2,5.9-13.1,13.1-13.1c7.2,0,13.1,5.9,13.1,13.1"/>
	<polyline id="XMLID_298_" class="st4" points="-45.7,121.9 -45.7,117.5 -98.3,117.5 -98.3,121.9 	"/>
	<polyline id="XMLID_284_" class="st4" points="-80.8,116.3 -80.8,113.8 -48.3,113.8 -48.3,116.3 	"/>
	<line id="XMLID_307_" class="st4" x1="-82.3" y1="84.3" x2="-82.3" y2="96.3"/>
	<path id="XMLID_306_" class="st4" d="M-82.3,84.2v-1.3c0-2.6-2.2-4.8-4.8-4.8l0,0v7.4c0,2.6,2.2,4.8,4.8,4.8l0,0V84.2z"/>
	<path id="XMLID_305_" class="st4" d="M-82,84.2v-1.3c0-2.6,2.2-4.8,4.8-4.8l0,0v7.4c0,2.6-2.2,4.8-4.8,4.8l0,0V84.2z"/>
	<polyline id="XMLID_303_" class="st4" points="-84.8,117.5 -84.8,97.8 -79.3,97.8 -79.3,104.9 -78.6,105.2 	"/>
	<g id="XMLID_357_" class="st2">
		<path id="XMLID_360_" class="st3" d="M-92.2,106.1L-92.2,106.1c-1.9,0-3.4-1.5-3.4-3.4v-8.5h6.8v8.5
			C-88.9,104.6-90.3,106.1-92.2,106.1z"/>
		<line id="XMLID_359_" class="st3" x1="-92.2" y1="106.1" x2="-92.2" y2="115.6"/>
		<line id="XMLID_358_" class="st3" x1="-96.3" y1="115.6" x2="-88.4" y2="115.6"/>
	</g>
</g>
<g id="XMLID_335_" class="st0">
	<g id="XMLID_333_" class="st2">
		<g id="XMLID_317_">
			<line id="XMLID_326_" class="st3" x1="-85.4" y1="95.2" x2="-84.2" y2="94.1"/>
			<line id="XMLID_323_" class="st3" x1="-83.2" y1="93" x2="-82" y2="91.9"/>
			<line id="XMLID_321_" class="st3" x1="-81.1" y1="90.8" x2="-79.9" y2="89.7"/>
			<line id="XMLID_320_" class="st3" x1="-78.9" y1="88.6" x2="-77.7" y2="87.6"/>
		</g>
		<g id="XMLID_319_">
			<line id="XMLID_332_" class="st3" x1="-82.2" y1="96.3" x2="-81" y2="95.2"/>
			<line id="XMLID_328_" class="st3" x1="-80" y1="94.1" x2="-78.8" y2="93"/>
			<line id="XMLID_327_" class="st3" x1="-77.8" y1="91.9" x2="-76.6" y2="90.8"/>
		</g>
		<path id="XMLID_316_" class="st3" d="M-68.1,97.5l-7.3,7.3c-0.3,0.3-0.8,0.3-1.1,0.1l-12.2-8.6c-0.4-0.3-0.4-0.9-0.1-1.3
			l10.9-10.9c0.3-0.3,1-0.3,1.3,0.1l8.6,12.2C-67.7,96.7-67.9,97.2-68.1,97.5z"/>
		<path id="XMLID_318_" class="st3" d="M-87.4,97.3c0,0-1.4,5.8,0.1,11.5c0.1,0.5,0.7,0.9,1.2,1l6.9,0.4c0.8,0,1.4-0.5,1.4-1.3
			c0-1.5,0.1-3.7,0.8-4.1"/>
		<path id="XMLID_322_" class="st3" d="M-86.1,109.6c0,0,0.9,2.3,5.7,7c0.3,0.3,0.8,0.3,1.1,0l0,0c0.3-0.3,0.4-0.9,0.3-1.3
			c-0.3-1.2-0.8-3.5-0.2-5.2"/>
		<path id="XMLID_325_" class="st3" d="M-75.4,85.2c0,0,5.8-1.4,11.5,0.1c0.5,0.1,0.9,0.7,1,1.2l0.4,6.9c0,0.8-0.5,1.4-1.3,1.4
			c-1.5,0-3.7,0.1-4.1,0.8"/>
		<path id="XMLID_324_" class="st3" d="M-62.9,86.6c0,0,2.3,0.9,7,5.7c0.3,0.3,0.3,0.8,0,1.1l0,0c-0.3,0.3-0.9,0.4-1.3,0.3
			c-1.2-0.3-3.5-0.8-5.2-0.2"/>
	</g>
	<path id="XMLID_336_" class="st4" d="M-48.1,100c0,13.2-10.7,23.9-23.9,23.9s-23.9-10.7-23.9-23.9S-85.2,76.1-72,76.1"/>
	<path id="XMLID_334_" class="st5" d="M-72,76.1c13.2,0,23.9,10.7,23.9,23.9"/>
</g>
<g id="XMLID_443_" class="st0">
	<path id="XMLID_340_" class="st4" d="M-58.7,124.8V82.5c0-0.1-0.1-0.2-0.2-0.2h-33.5c-0.1,0-0.2,0.1-0.2,0.2v42.2"/>
	<path id="XMLID_416_" class="st4" d="M-82.4,108h-6.3c-0.1,0-0.2-0.1-0.2-0.2V95c0-0.1,0.1-0.2,0.2-0.2h6.3c0.1,0,0.2,0.1,0.2,0.2
		v12.8C-82.2,107.9-82.3,108-82.4,108z"/>
	<path id="XMLID_418_" class="st4" d="M-72.2,108h-6.3c-0.1,0-0.2-0.1-0.2-0.2V95c0-0.1,0.1-0.2,0.2-0.2h6.3c0.1,0,0.2,0.1,0.2,0.2
		v12.8C-71.9,107.9-72,108-72.2,108z"/>
	<path id="XMLID_419_" class="st4" d="M-62,108h-6.3c-0.1,0-0.2-0.1-0.2-0.2V95c0-0.1,0.1-0.2,0.2-0.2h6.3c0.1,0,0.2,0.1,0.2,0.2
		v12.8C-61.6,107.9-61.8,108-62,108z"/>
	<line id="XMLID_431_" class="st4" x1="-92.6" y1="91" x2="-58.7" y2="91"/>
	<path id="XMLID_430_" class="st4" d="M-61.8,121.4h-27c-0.1,0-0.2-0.1-0.2-0.2v-8c0-0.1,0.1-0.2,0.2-0.2h27c0.1,0,0.2,0.1,0.2,0.2
		v8C-61.6,121.3-61.7,121.4-61.8,121.4z"/>
	<rect id="XMLID_436_" x="-57.8" y="100.5" class="st4" width="6.4" height="8.2"/>
	<line id="XMLID_439_" class="st4" x1="-54.1" y1="89.6" x2="-54.1" y2="100.1"/>
	<circle id="XMLID_440_" class="st4" cx="-54.1" cy="88.2" r="2.1"/>
	<path id="XMLID_339_" class="st4" d="M-71.6,80.3v-1.1c0-2.2-1.9-4-4-4l0,0c-2.2,0-4,1.9-4,4v1.1"/>
	<line id="XMLID_342_" class="st4" x1="-86.6" y1="97.9" x2="-84.6" y2="97.9"/>
	<line id="XMLID_341_" class="st4" x1="-86.6" y1="101.3" x2="-84.6" y2="101.3"/>
	<line id="XMLID_343_" class="st4" x1="-86.6" y1="104.7" x2="-84.6" y2="104.7"/>
	<line id="XMLID_346_" class="st4" x1="-76.5" y1="97.9" x2="-74.4" y2="97.9"/>
	<line id="XMLID_345_" class="st4" x1="-76.5" y1="101.3" x2="-74.4" y2="101.3"/>
	<line id="XMLID_344_" class="st4" x1="-76.5" y1="104.7" x2="-74.4" y2="104.7"/>
	<line id="XMLID_349_" class="st4" x1="-66.3" y1="97.9" x2="-64.2" y2="97.9"/>
	<line id="XMLID_348_" class="st4" x1="-66.3" y1="101.3" x2="-64.2" y2="101.3"/>
	<line id="XMLID_347_" class="st4" x1="-66.3" y1="104.7" x2="-64.2" y2="104.7"/>
	<line id="XMLID_363_" class="st4" x1="-89" y1="117.1" x2="-81.3" y2="117.1"/>
	<line id="XMLID_361_" class="st4" x1="-69.4" y1="117.1" x2="-61.6" y2="117.1"/>
	<line id="XMLID_367_" class="st4" x1="-83.8" y1="86.1" x2="-81" y2="86.1"/>
	<line id="XMLID_366_" class="st4" x1="-77.2" y1="86.1" x2="-74.4" y2="86.1"/>
	<line id="XMLID_368_" class="st4" x1="-70.7" y1="86.1" x2="-67.9" y2="86.1"/>
</g>
<g id="XMLID_372_" class="st0">
	<path id="XMLID_385_" class="st4" d="M-92.9,122.7V77.5c0-0.1,0.1-0.2,0.2-0.2h41.6c0.1,0,0.2,0.1,0.2,0.2v20"/>
	<line id="XMLID_383_" class="st4" x1="-92.7" y1="85.7" x2="-50.9" y2="85.7"/>
	<line id="XMLID_382_" class="st4" x1="-89.4" y1="81.7" x2="-86.8" y2="81.7"/>
	<line id="XMLID_370_" class="st4" x1="-85" y1="81.7" x2="-82.5" y2="81.7"/>
	<line id="XMLID_379_" class="st4" x1="-80.6" y1="81.7" x2="-78.1" y2="81.7"/>
	<g id="XMLID_375_" class="st2">
		<line id="XMLID_378_" class="st3" x1="-79.1" y1="97.9" x2="-74.3" y2="102.7"/>
		<polyline id="XMLID_377_" class="st3" points="-75.4,97.1 -80,97.1 -80,101.6 		"/>
		<path id="XMLID_376_" class="st6" d="M-80,106.2c-2.3-0.2-4.5-1.4-5.9-3.6c-2.5-3.7-1.5-8.8,2.2-11.4c3.7-2.5,8.8-1.5,11.4,2.2
			c1.2,1.7,1.5,3.7,1.3,5.7"/>
	</g>
	<line id="XMLID_373_" class="st4" x1="-64.8" y1="110" x2="-52.3" y2="110"/>
	<line id="XMLID_371_" class="st4" x1="-88.2" y1="114.5" x2="-72.1" y2="114.5"/>
	<line id="XMLID_386_" class="st4" x1="-97.8" y1="122.7" x2="-46.2" y2="122.7"/>
	<path id="XMLID_472_" class="st4" d="M-69.3,122.1v-20.7c0-0.7,0.5-1.2,1.2-1.2h18.7c0.7,0,1.2,0.5,1.2,1.2V122"/>
</g>
<g id="XMLID_392_" class="st0">
	<g id="XMLID_380_" class="st2">
		<path id="XMLID_374_" class="st3" d="M-70.4,118.3h-20.9c-0.1,0-0.2-0.1-0.2-0.2V81.8c0-0.1,0.1-0.2,0.2-0.2h20.9
			c0.1,0,0.2,0.1,0.2,0.2v36.4C-70.1,118.3-70.3,118.3-70.4,118.3z"/>
		<path id="XMLID_389_" class="st3" d="M-74.7,93.4v-4.3c-1.3,0-2.4-1.1-2.4-2.4h-7.5c0,1.3-1.1,2.4-2.4,2.4v4.3"/>
		<path id="XMLID_388_" class="st3" d="M-86.8,106.6v4.1c1.3,0,2.4,1.1,2.4,2.4v0.1h7.5v-0.1c0-1.3,1.1-2.4,2.4-2.4v-4.1"/>
		<line id="XMLID_390_" class="st3" x1="-75.3" y1="100.3" x2="-73.5" y2="100.3"/>
		<line id="XMLID_393_" class="st3" x1="-81.7" y1="93.4" x2="-79.9" y2="93.4"/>
	</g>
	<polyline id="XMLID_394_" class="st4" points="-54.9,99.2 -65.9,99.2 -65.9,99 -63.2,94.3 	"/>
	<polyline id="XMLID_396_" class="st4" points="-67,103.1 -56,103.1 -56,103.3 -58.7,108 	"/>
	<path id="XMLID_391_" class="st4" d="M-65.9,81.7h13.5c0.1,0,0.2,0.1,0.2,0.2v36.4c0,0.1,0.1,0.2,0.2,0.2h6.1"/>
	<line id="XMLID_395_" class="st4" x1="-98.1" y1="118.3" x2="-94.1" y2="118.3"/>
</g>
<g id="XMLID_462_" class="st0">
	<g id="XMLID_51_" class="st2">
		<line id="XMLID_56_" class="st3" x1="-62.3" y1="90.9" x2="-59.9" y2="90.9"/>
		<line id="XMLID_55_" class="st3" x1="-57.9" y1="90.9" x2="-55.5" y2="90.9"/>
		<line id="XMLID_54_" class="st3" x1="-53.6" y1="90.9" x2="-51.1" y2="90.9"/>
	</g>
	<g id="XMLID_412_" class="st2">
		<path id="XMLID_463_" class="st3" d="M-66.7,102.3h17.2c0.1,0,0.2,0.1,0.2,0.2v19.4c0,0.1-0.1,0.2-0.2,0.2h-17.1"/>
		<path id="XMLID_461_" class="st3" d="M-94.7,121.5c0,0.3,0.2,0.5,0.5,0.5H-69c0.3,0,0.5-0.2,0.5-0.5V85.9c0-0.3-0.2-0.5-0.5-0.5
			h-25.2c-0.3,0-0.5,0.2-0.5,0.5V121.5z"/>
		<line id="XMLID_460_" class="st3" x1="-84.7" y1="77.1" x2="-84.7" y2="84.6"/>
		<line id="XMLID_458_" class="st3" x1="-78.2" y1="77.1" x2="-78.2" y2="84.6"/>
		<path id="XMLID_456_" class="st3" d="M-76.8,77.8h-9.5c-0.8,0-1.3-0.7-1.3-1.3l0,0c0-0.8,0.7-1.3,1.3-1.3h9.5
			c0.8,0,1.3,0.7,1.3,1.3l0,0C-75.4,77.3-76,77.8-76.8,77.8z"/>
		<line id="XMLID_452_" class="st3" x1="-89.1" y1="122.2" x2="-89.1" y2="124.8"/>
		<line id="XMLID_451_" class="st3" x1="-74.2" y1="122.2" x2="-74.2" y2="124.8"/>
		<line id="XMLID_446_" class="st3" x1="-57.6" y1="122.2" x2="-57.6" y2="124.8"/>
		<line id="XMLID_442_" class="st3" x1="-87.5" y1="119.4" x2="-87.5" y2="88.1"/>
		<line id="XMLID_441_" class="st3" x1="-81.4" y1="119.4" x2="-81.4" y2="88.1"/>
		<line id="XMLID_438_" class="st3" x1="-75.3" y1="101.3" x2="-75.3" y2="88.1"/>
		<line id="XMLID_444_" class="st3" x1="-75.3" y1="119.4" x2="-75.3" y2="103.8"/>
		<path id="XMLID_437_" class="st3" d="M-49.3,107.9c-3.1,0-5.6-2.5-5.6-5.6"/>
		<path id="XMLID_435_" class="st3" d="M-49.3,116.4c-3.1,0-5.6,2.5-5.6,5.6"/>
		<path id="XMLID_420_" class="st3" d="M-59.6,102L-59.6,102c0-2.2-1.7-3.9-3.9-3.9h-3.2"/>
	</g>
</g>
<g id="XMLID_476_" class="st0">
	<g id="XMLID_474_" class="st2">
		<line id="XMLID_487_" class="st3" x1="-79.6" y1="115.5" x2="-77.3" y2="115.5"/>
		<line id="XMLID_486_" class="st3" x1="-75.3" y1="115.5" x2="-73" y2="115.5"/>
		<line id="XMLID_485_" class="st3" x1="-70.9" y1="115.5" x2="-68.6" y2="115.5"/>
		<line id="XMLID_484_" class="st3" x1="-66.5" y1="115.5" x2="-64.2" y2="115.5"/>
	</g>
	<g id="XMLID_454_" class="st2">
		<path id="XMLID_482_" class="st3" d="M-81.8,99.6v-5c0-0.4,0.3-0.9,0.8-1.1l6.2-2.2v-2.4"/>
		<path id="XMLID_480_" class="st3" d="M-62.2,99.6v-5c0-0.4-0.3-0.9-0.8-1.1l-6.2-2.2v-2.4"/>
		<path id="XMLID_477_" class="st3" d="M-67.2,81c0-2.6-2.1-4.7-4.7-4.7s-4.7,2.1-4.7,4.7l0.4,5.7c0.1,0.8,0.5,1.4,1.2,1.9l2.3,1.5
			h1.5l2.4-1.5c0.5-0.3,0.9-0.8,1.1-1.3c0-0.1,0.1-0.3,0.1-0.4L-67.2,81z"/>
		<polyline id="XMLID_473_" class="st3" points="-74.7,91.4 -73,93.3 -70.9,93.3 -69.2,91.4 		"/>
	</g>
	<g id="XMLID_469_" class="st2">
		<path id="XMLID_466_" class="st3" d="M-80.1,107.4h-9.4c-0.1,0-0.2-0.1-0.2-0.2v-5.1c0-0.1,0.1-0.2,0.2-0.2h34.9
			c0.1,0,0.2,0.1,0.2,0.2v5.1c0,0.1-0.1,0.2-0.2,0.2h-15.1"/>
		<line id="XMLID_470_" class="st3" x1="-82.7" y1="123.8" x2="-82.7" y2="107.3"/>
		<line id="XMLID_457_" class="st3" x1="-61.3" y1="107.3" x2="-61.3" y2="123.8"/>
	</g>
	<path id="XMLID_475_" class="st4" d="M-94.6,123.8V82.1c0-0.1,0.1-0.2,0.2-0.2h14.6"/>
	<path id="XMLID_471_" class="st4" d="M-64.2,82h14.6c0.1,0,0.2,0.1,0.2,0.2v41.6"/>
</g>
<g id="XMLID_478_" class="st0">
	<path id="XMLID_495_" class="st4" d="M-87.4,92c-2-4.1-1.5-9.1-1.5-9.1s4.7-0.4,8.8,1.5"/>
	<path id="XMLID_494_" class="st4" d="M-63.8,84.5c4.1-1.9,8.8-1.4,8.8-1.4s0.4,4.8-1.5,9.1"/>
	<path id="XMLID_493_" class="st4" d="M-56.5,108.3c1.9,4.1,1.4,8.7,1.4,8.7s-4.7,0.4-8.7-1.4"/>
	<path id="XMLID_492_" class="st4" d="M-80.1,115.5c-4.1,1.9-8.8,1.5-8.8,1.5s-0.4-4.8,1.5-9"/>
	<path id="XMLID_491_" class="st4" d="M-60.9,94.1c-2.3,0-4.5,0.3-6.2,1c0.7-1.7,1-3.9,1-6.2c0-5.8-5.1-10.5-5.9-11.1
		c0,0-0.1,0-0.2,0c-0.8,0.7-5.9,5.3-5.9,11.1c0,2.3,0.3,4.5,1,6.2c-1.7-0.7-3.9-1-6.2-1c-5.8,0-10.5,5.1-11.1,5.8c0,0,0,0.1,0,0.2
		c0.7,0.8,5.3,5.9,11,5.9c2.3,0,4.5-0.3,6.2-1c-0.7,1.7-1,3.9-1,6.2c0,5.8,5.1,10.5,5.8,11.1c0,0,0.1,0,0.2,0
		c0.8-0.7,5.9-5.3,5.9-11.1c0-2.3-0.3-4.5-1-6.2c1.7,0.7,3.9,1,6.2,1c5.8,0,10.5-5.1,11.1-5.9c0,0,0-0.1,0-0.2
		C-50.4,99.2-55.1,94.1-60.9,94.1z"/>
	<line id="XMLID_489_" class="st4" x1="-84.1" y1="89" x2="-82" y2="89"/>
	<line id="XMLID_481_" class="st4" x1="-62.7" y1="89" x2="-60.6" y2="89"/>
	<line id="XMLID_496_" class="st4" x1="-84.1" y1="110.4" x2="-82" y2="110.4"/>
	<line id="XMLID_490_" class="st4" x1="-62.7" y1="110.4" x2="-60.6" y2="110.4"/>
	<line id="XMLID_497_" class="st4" x1="-73.1" y1="100" x2="-70.9" y2="100"/>
</g>
<g id="XMLID_508_" class="st0">
	<g id="XMLID_507_" class="st2">
		<g id="XMLID_525_">
			<path id="XMLID_530_" class="st3" d="M-99.3,117.2v-6.6c0-0.5,0.3-1,0.9-1.2l7.1-2.4v-2.7"/>
			<polyline id="XMLID_529_" class="st3" points="-78.1,109.4 -85.2,107.1 -85.2,104.4 			"/>
			<path id="XMLID_528_" class="st3" d="M-93.3,98.4l0.2,3.4c0.1,0.9,0.5,1.6,1.3,2.1l2.6,1.7h1.7l2.6-1.7c0.8-0.4,1.3-1.2,1.3-2.1
				l0.2-6.3"/>
			<polyline id="XMLID_527_" class="st3" points="-91.4,107.1 -89.5,109.3 -87.1,109.3 -85.1,107.1 			"/>
			<path id="XMLID_526_" class="st3" d="M-80.5,88.4v2.4c0,1.3-1,2.3-2.3,2.3H-92c-0.7,0-1.2,0.5-1.2,1.2v2.2c0,0.1-0.1,0.2-0.2,0.2
				h-1.2c-0.1,0-0.2-0.1-0.2-0.2v-5c0.2-0.8,1.1-0.8,1.4-0.8c0.1,0,0.2-0.1,0.2-0.2c0.1-1.2,1.1-2.1,2.3-2.1
				C-90.9,88.4-80.5,88.4-80.5,88.4z"/>
		</g>
		<g id="XMLID_564_">
			<path id="XMLID_568_" class="st3" d="M-80.3,122.3v-4.1c0-0.4,0.2-0.8,0.7-0.9l5.1-1.7v-2.8"/>
			<path id="XMLID_567_" class="st3" d="M-64.4,122.3v-4.1c0-0.4-0.2-0.8-0.7-0.9l-5.1-1.7v-2.8"/>
			<path id="XMLID_566_" class="st3" d="M-68.5,106.1c0-2.2-1.7-3.8-3.8-3.8c-2.1,0-3.8,1.7-3.8,3.8l0.3,4.6c0,0.7,0.4,1.2,1,1.4
				l1.9,1.2h1.2l2-1.2c0.5-0.3,0.9-0.9,1-1.4L-68.5,106.1z"/>
			<polyline id="XMLID_565_" class="st3" points="-74.6,115.5 -73.2,117.1 -71.5,117.1 -70,115.5 			"/>
		</g>
		<g id="XMLID_505_">
			<polyline id="XMLID_563_" class="st3" points="-66.3,110.2 -59.1,107.8 -59.1,103.7 			"/>
			<path id="XMLID_560_" class="st3" d="M-44.7,117.2v-5.9c0-0.5-0.3-1.1-0.9-1.2l-7.2-2.4v-4"/>
			<path id="XMLID_531_" class="st3" d="M-50.5,94.5l-0.5,6.6c-0.1,0.9-0.5,1.6-1.3,2.1l-2.7,1.7h-1.7l-2.6-1.7
				c-0.8-0.4-1.3-1.2-1.3-2.1l-0.5-6.6h3.7c2.1,0,3.6-1.7,3.4-3.8l0,0"/>
			<polyline id="XMLID_557_" class="st3" points="-59.1,107.8 -57,110 -54.6,110 -52.6,107.8 			"/>
			<path id="XMLID_532_" class="st3" d="M-48.3,109.5V93.9c0-4-3.3-7.3-7.3-7.3l0,0c-4,0-7.3,3.3-7.3,7.3v15.5"/>
		</g>
	</g>
	<path id="XMLID_521_" class="st4" d="M-62.4,82.5c0-2.6-2.2-4.8-4.8-4.8c-1.3,0-2.5,0.5-3.4,1.4c-0.9-0.9-2.1-1.4-3.4-1.4
		c-2.6,0-4.8,2.2-4.8,4.8c0,1.3,0.5,2.4,1.3,3.3l6.8,6.8l7-6.9c0.1-0.1,0.3-0.3,0.3-0.3C-62.7,84.5-62.4,83.5-62.4,82.5z"/>
</g>
<g id="XMLID_384_" class="st0">
	<path id="XMLID_381_" class="st4" d="M-59.8,94.1c1.1,2,1.7,4.3,1.7,6.7c0.1,9.9-12.3,21.4-13.8,22.8c-0.1,0.1-0.2,0.1-0.3,0
		c-1.1-1-7.4-6.8-11.1-13.6c-1.6-2.9-2.7-6.1-2.7-9.1c0-2.4,0.7-4.7,1.7-6.7"/>
	<circle id="XMLID_513_" class="st4" cx="-72" cy="99.5" r="5.3"/>
	<path id="XMLID_518_" class="st4" d="M-79.2,92.4c0.9-0.9,2-1.6,3.3-2.2c1.2-0.5,2.5-0.8,3.9-0.8c1.4,0,2.7,0.3,3.9,0.8
		c1.2,0.5,2.3,1.3,3.3,2.2"/>
	<path id="XMLID_536_" class="st4" d="M-82.6,87.2c1.3-1.3,2.9-2.5,4.8-3.3c1.7-0.8,3.8-1.2,5.9-1.2s4,0.4,5.9,1.2s3.4,1.9,4.8,3.3"
		/>
	<path id="XMLID_510_" class="st7" d="M-87.1,82.6c2-2,4.3-3.5,6.8-4.6s5.3-1.6,8.3-1.6s5.7,0.5,8.3,1.6c2.5,1.1,4.8,2.6,6.8,4.6"/>
</g>
<g id="XMLID_520_" class="st0">
	<path id="XMLID_535_" class="st4" d="M-61.2,93.2c0.1,7.5-9.3,16.3-10.5,17.2c-0.1,0.1-0.1,0.1-0.2,0c-1.1-1-10.5-9.7-10.5-17.2
		c0-5.8,4.7-10.6,10.6-10.6C-65.9,82.6-61.2,87.3-61.2,93.2z"/>
	<circle id="XMLID_533_" class="st4" cx="-71.7" cy="93.2" r="5.8"/>
	<path id="XMLID_524_" class="st7" d="M-83.8,105.8c-3.1-3.1-5-7.3-5-12s1.9-9,5-12c3.1-3.1,7.3-5,12-5c4.7,0,9,1.9,12,5
		c3.1,3.1,5,7.3,5,12s-1.9,9-5,12"/>
	<path id="XMLID_523_" class="st4" d="M-52.8,101.4h2.7c0.1,0,0.2,0.1,0.2,0.2l2.2,21.3c0,0.1-0.1,0.3-0.2,0.3H-96
		c-0.1,0-0.3-0.1-0.2-0.3l2.2-21.3c0-0.1,0.1-0.2,0.2-0.2h3.1"/>
	<polyline id="XMLID_522_" class="st4" points="-92.3,110.9 -84.7,110.9 -84.7,116.8 -72,116.8 -72,112.4 	"/>
</g>
<g id="XMLID_552_" class="st0">
	<path id="XMLID_516_" class="st4" d="M-56.4,77.3v45.3c0,0.1-0.1,0.2-0.2,0.2h-30.8c-0.1,0-0.2-0.1-0.2-0.2V77.3
		c0-0.1,0.1-0.2,0.2-0.2h30.7C-56.5,77.1-56.4,77.2-56.4,77.3z"/>
	<g id="XMLID_555_" class="st2">
		<path id="XMLID_574_" class="st3" d="M-62.9,114.5v-3.6c0-0.7-0.5-1.1-1.1-1.1h-8.8c-0.7,0-1.1,0.5-1.1,1.1v3.7
			c0,0.7,0.5,1.1,1.1,1.1h8.8C-63.5,115.7-62.9,115.2-62.9,114.5z"/>
		<line id="XMLID_573_" class="st3" x1="-68.5" y1="92.4" x2="-68.5" y2="109.8"/>
		<line id="XMLID_572_" class="st3" x1="-68.5" y1="95.6" x2="-62.8" y2="95.6"/>
		<line id="XMLID_571_" class="st3" x1="-68.5" y1="99.8" x2="-64" y2="99.8"/>
		<path id="XMLID_570_" class="st3" d="M-71.2,115.7c0,1.5,1.3,2.8,2.8,2.8s2.8-1.3,2.8-2.8"/>
		<line id="XMLID_569_" class="st3" x1="-68.5" y1="111.8" x2="-68.5" y2="113.8"/>
	</g>
	<line id="XMLID_576_" class="st4" x1="-87.6" y1="88.9" x2="-56.4" y2="88.9"/>
	<line id="XMLID_577_" class="st4" x1="-84.6" y1="82.5" x2="-82" y2="82.5"/>
	<line id="XMLID_575_" class="st4" x1="-80.2" y1="82.5" x2="-77.7" y2="82.5"/>
	<line id="XMLID_579_" class="st4" x1="-66.9" y1="82.5" x2="-64.4" y2="82.5"/>
	<line id="XMLID_539_" class="st4" x1="-71.2" y1="82.5" x2="-68.8" y2="82.5"/>
	<line id="XMLID_540_" class="st4" x1="-75.7" y1="82.5" x2="-73.2" y2="82.5"/>
	<line id="XMLID_578_" class="st4" x1="-62.4" y1="82.5" x2="-59.9" y2="82.5"/>
	<line id="XMLID_580_" class="st4" x1="-80.7" y1="122.9" x2="-80.7" y2="88.9"/>
</g>
<g id="Icon_text" class="st0">
	<g id="XMLID_67_" class="st2">
		<text id="XMLID_543_" transform="matrix(1 0 0 1 -278.3244 -8.1667)" class="st8 st9 st10">RESTAURANT</text>
	</g>
	<g id="XMLID_173_" class="st2">
		<text id="XMLID_544_" transform="matrix(1 0 0 1 -172.4146 -9.016)" class="st8 st9 st10">CHEF</text>
	</g>
	<g id="XMLID_157_" class="st2">
		<text id="XMLID_545_" transform="matrix(1 0 0 1 -92.8346 -9.8652)" class="st8 st9 st10">RECEPTION</text>
	</g>
	<g id="XMLID_155_" class="st2">
		<text id="XMLID_546_" transform="matrix(1 0 0 1 7.2822 -9.865)" class="st8 st9 st10">HOTEL</text>
	</g>
	<g id="XMLID_196_" class="st2">
		<text id="XMLID_547_" transform="matrix(1 0 0 1 80.3847 -9.8651)" class="st8 st9 st10">GUEST PARKING</text>
	</g>
	<g id="XMLID_414_" class="st2">
		<text transform="matrix(1 0 0 1 -268.6945 86.0698)" class="st8 st9 st10">FITNESS</text>
		<text transform="matrix(1 0 0 1 -268.2945 93.0698)" class="st8 st9 st10">CENTER</text>
	</g>
	<g id="XMLID_251_" class="st2">
		<text id="XMLID_549_" transform="matrix(1 0 0 1 -178.0351 86.0698)" class="st8 st9 st10">LOUNGE</text>
	</g>
	<g id="XMLID_269_" class="st2">
		<text transform="matrix(1 0 0 1 -78.7375 86.07)" class="st8 st9 st10">LUX</text>
		<text transform="matrix(1 0 0 1 -85.5375 93.07)" class="st8 st9 st10">ROOMS</text>
	</g>
	<g id="XMLID_277_" class="st2">
		<text transform="matrix(1 0 0 1 4.3459 85.221)" class="st8 st9 st10">DOUBLE</text>
		<text transform="matrix(1 0 0 1 11.8459 92.221)" class="st8 st9 st10">BED</text>
	</g>
	<g id="XMLID_274_" class="st2">
		<text transform="matrix(1 0 0 1 97.1024 85.2206)" class="st8 st9 st10">SINGLE</text>
		<text transform="matrix(1 0 0 1 102.9024 92.2206)" class="st8 st9 st10">BED</text>
	</g>
	<g id="XMLID_279_" class="st2">
		<text transform="matrix(1 0 0 1 -260.5816 182.4163)" class="st8 st9 st10">PET</text>
		<text transform="matrix(1 0 0 1 -271.5816 189.4163)" class="st8 st9 st10">FRIENDLY</text>
	</g>
	<g id="XMLID_309_" class="st2">
		<text transform="matrix(1 0 0 1 -174.42 182.4163)" class="st8 st9 st10">ROOM</text>
		<text transform="matrix(1 0 0 1 -178.22 189.4163)" class="st8 st9 st10">SERVICE</text>
	</g>
	<g id="XMLID_337_" class="st2">
		<text id="XMLID_581_" transform="matrix(1 0 0 1 0.5332 182.417)" class="st8 st9 st10">BERKFAST</text>
	</g>
	<g id="XMLID_338_" class="st2">
		<text id="XMLID_582_" transform="matrix(1 0 0 1 -79.2355 182.4166)" class="st8 st9 st10">BAR</text>
	</g>
	<g id="XMLID_445_" class="st2">
		<text id="XMLID_596_" transform="matrix(1 0 0 1 -86.0552 374.4039)" class="st8 st9 st10">CASINO</text>
	</g>
	<g id="XMLID_387_" class="st2">
		<text transform="matrix(1 0 0 1 -267.8752 278.4996)" class="st8 st9 st10">ONLINE</text>
		<text transform="matrix(1 0 0 1 -279.7752 285.4996)" class="st8 st9 st10">RESERVATION</text>
	</g>
	<g id="XMLID_397_" class="st2">
		<text transform="matrix(1 0 0 1 -179.1444 278.4999)" class="st8 st9 st10">EXPRESS</text>
		<text transform="matrix(1 0 0 1 -181.0444 285.4999)" class="st8 st9 st10">CHECK-IN</text>
	</g>
	<g id="XMLID_434_" class="st2">
		<text transform="matrix(1 0 0 1 -89.7554 278.4996)" class="st8 st9 st10">PAYMENT</text>
		<text transform="matrix(1 0 0 1 -80.9554 285.4996)" class="st8 st9 st10">TYPE</text>
	</g>
	<g id="XMLID_464_" class="st2">
		<text id="XMLID_600_" transform="matrix(1 0 0 1 1.9851 277.6507)" class="st8 st9 st10">LUGGAGE</text>
	</g>
	<g id="XMLID_488_" class="st2">
		<text transform="matrix(1 0 0 1 84.5633 277.651)" class="st8 st9 st10">CONFERENCE</text>
		<text transform="matrix(1 0 0 1 98.1633 284.651)" class="st8 st9 st10">ROOM</text>
	</g>
	<g id="XMLID_500_" class="st2">
		<text transform="matrix(1 0 0 1 -273.1739 374.4039)" class="st8 st9 st10">WELLNESS</text>
		<text transform="matrix(1 0 0 1 -268.3739 381.4039)" class="st8 st9 st10">CENTER</text>
	</g>
	<g id="XMLID_509_" class="st2">
		<text transform="matrix(1 0 0 1 -176.2377 374.404)" class="st8 st9 st10">FAMILY</text>
		<text transform="matrix(1 0 0 1 -180.6377 381.404)" class="st8 st9 st10">FRIENDLY</text>
	</g>
	<g id="XMLID_519_" class="st2">
		<text transform="matrix(1 0 0 1 101.7396 182.4162)" class="st8 st9 st10">MAP</text>
		<text transform="matrix(1 0 0 1 90.9396 189.4162)" class="st8 st9 st10">LOCATION</text>
	</g>
	<g id="XMLID_511_" class="st2">
		<text transform="matrix(1 0 0 1 10.1085 374.4043)" class="st8 st9 st10">FREE</text>
		<text transform="matrix(1 0 0 1 -0.8915 381.4043)" class="st8 st9 st10">WI-FI SPOT</text>
	</g>
	<g id="XMLID_517_" class="st2">
		<text id="XMLID_606_" transform="matrix(1 0 0 1 93.3825 374.4036)" class="st8 st9 st10">KEYLOCK</text>
	</g>
</g>
<g id="headline" class="st0">
	<circle id="XMLID_61_" class="st11" cx="-237.5" cy="-140.4" r="18.3"/>
	<circle id="XMLID_60_" class="st12" cx="-214.1" cy="-140.4" r="18.3"/>
	<circle id="XMLID_63_" class="st13" cx="-226.7" cy="-122.1" r="18.3"/>
	<g id="XMLID_1_" class="st2">
		<text transform="matrix(1 0 0 1 -287.7552 -126.0852)" style="fill:#231F20; font-family:'Oswald-Regular'; font-size:22.512px;">FLAT </text>
		<text transform="matrix(1 0 0 1 -242.2552 -126.0852)" style="fill:#231F20; font-family:'Oswald-Regular'; font-size:22.512px;">LINE </text>
		<text transform="matrix(1 0 0 1 -203.8552 -126.0852)" style="fill:#231F20; font-family:'Oswald-Regular'; font-size:22.512px;">ICONS</text>
	</g>
	<g id="XMLID_2_" class="st2">
		
			<text id="XMLID_608_" transform="matrix(1 0 0 1 94.7408 -125.9056)" style="fill:#231F20; font-family:'Oswald-Regular'; font-size:16.1735px;">HOTEL</text>
	</g>
</g>
<path id="XMLID_425_" class="st14" d="M1.1,88.8h-36.6c-1.2,0-2.2-1-2.2-2.2V69.4c0-1.2,1-2.2,2.2-2.2H1.1c1.2,0,2.2,1,2.2,2.2v17.2
	C3.3,87.8,2.3,88.8,1.1,88.8z"/>
<path id="XMLID_423_" class="st14" d="M-31.3,67.3c0,3.5-2.8,6.3-6.3,6.3"/>
<path id="XMLID_422_" class="st14" d="M-3.2,67.3c0,3.5,2.8,6.3,6.3,6.3"/>
<path id="XMLID_417_" class="st14" d="M-31.3,88.8c0-3.5-2.8-6.3-6.3-6.3"/>
<path id="XMLID_415_" class="st14" d="M-3.2,88.8c0-3.5,2.8-6.3,6.3-6.3"/>
<line id="XMLID_409_" class="st14" x1="-29.4" y1="78" x2="-26.9" y2="78"/>
<line id="XMLID_408_" class="st14" x1="-7.8" y1="78" x2="-5.4" y2="78"/>
<path id="XMLID_405_" class="st14" d="M-17.1,65.5V43.3c0-0.1-0.1-0.2-0.2-0.2H-43c-0.1,0-0.2,0.1-0.2,0.2v45.2
	c0,0.2,0.1,0.3,0.3,0.3h3.7"/>
<line id="XMLID_403_" class="st14" x1="-23.4" y1="48" x2="-23.4" y2="52.6"/>
<line id="XMLID_402_" class="st14" x1="-23.4" y1="54.9" x2="-23.4" y2="59.5"/>
<line id="XMLID_401_" class="st14" x1="-23.4" y1="61.6" x2="-23.4" y2="64.6"/>
<path id="XMLID_400_" class="st14" d="M-31.8,58.3h-5.6c-0.1,0-0.2-0.1-0.2-0.2v-8.6c0-0.1,0.1-0.2,0.2-0.2h5.6
	c0.1,0,0.2,0.1,0.2,0.2v8.6C-31.6,58.1-31.8,58.3-31.8,58.3z"/>
<g id="XMLID_432_">
	<polyline id="XMLID_399_" class="st14" points="-8.6,51.9 -5,55.5 3.3,47.2 	"/>
	<path id="XMLID_398_" class="st14" d="M1.5,53.7c0,3.9-3.2,7-7,7c-3.9,0-7-3.2-7-7c0-3.9,3.2-7,7-7c1.3,0,2.5,0.3,3.6,1"/>
</g>
<path class="st15" d="M-10.3,79.8c0,0.6-0.5,1.1-1.1,1.1h-8.2c-0.2,0.3-0.4,0.7-0.4,1.1c0,1,0.8,1.8,1.8,1.8h1.7
	c0.7,0,1.4-0.3,1.9-0.8c0.4-0.4,1.2-0.4,1.6,0c0.4,0.4,0.4,1.2,0,1.6c-1,0.9-2.2,1.5-3.5,1.5h-1.7c-2.2,0-4-1.8-4-4
	c0-0.4,0.1-0.7,0.1-1.1h-0.7c-0.6,0-1.1-0.5-1.1-1.1s0.5-1.1,1.1-1.1h2.3c0.1,0,0.1-0.1,0.2-0.1l1.9-1h-4.4c-0.6,0-1.1-0.5-1.1-1.1
	s0.5-1.1,1.1-1.1h8.2c0.2-0.3,0.4-0.7,0.4-1.1c0-1-0.8-1.8-1.8-1.8h-1.7c-0.7,0-1.4,0.3-1.9,0.8c-0.4,0.4-1.2,0.4-1.6,0
	s-0.4-1.2,0-1.6c0.9-0.9,2.2-1.5,3.5-1.5h1.7c2.2,0,4,1.8,4,4c0,0.4-0.1,0.7-0.1,1.1h0.7c0.6,0,1.1,0.5,1.1,1.1s-0.5,1.1-1.1,1.1
	h-2.3c-0.1,0-0.1,0.1-0.2,0.1l-1.9,1h4.4C-10.8,78.5-10.3,79-10.3,79.8z"/>
</svg>
