<?xml version="1.0" encoding="utf-8"?>
<!-- Generator: Adobe Illustrator 19.0.0, SVG Export Plug-In . SVG Version: 6.00 Build 0)  -->
<svg version="1.1" id="Слой_1" xmlns="http://www.w3.org/2000/svg" xmlns:xlink="http://www.w3.org/1999/xlink" x="0px" y="0px"
	 viewBox="-69 51 30 30" style="enable-background:new -69 51 30 30;" xml:space="preserve">
<style type="text/css">
	.st0{fill:#1083FF;}
</style>
<path class="st0" d="M-46.5,70c-1.4,0-2.5,1.1-2.5,2.5s1.1,2.5,2.5,2.5c0.6,0,1.1-0.2,1.5-0.6c0.4,0.4,0.9,0.6,1.5,0.6
	c1.4,0,2.5-1.1,2.5-2.5s-1.1-2.5-2.5-2.5c-0.6,0-1.1,0.2-1.5,0.6C-45.4,70.2-45.9,70-46.5,70z M-46.5,71c0.4,0,0.8,0.2,1.1,0.5
	c0.2,0.2,0.5,0.2,0.8,0c0.3-0.3,0.7-0.5,1.1-0.5c0.8,0,1.5,0.7,1.5,1.5s-0.7,1.5-1.5,1.5c-0.4,0-0.8-0.2-1.1-0.5
	c-0.2-0.2-0.5-0.2-0.8,0c-0.3,0.3-0.7,0.5-1.1,0.5c-0.8,0-1.5-0.7-1.5-1.5S-47.3,71-46.5,71z M-53.5,72h2c0.3,0,0.5,0.2,0.5,0.5
	s-0.2,0.5-0.5,0.5h-2c-0.3,0-0.5-0.2-0.5-0.5S-53.8,72-53.5,72z M-57.5,72h2c0.3,0,0.5,0.2,0.5,0.5s-0.2,0.5-0.5,0.5h-2
	c-0.3,0-0.5-0.2-0.5-0.5S-57.8,72-57.5,72z M-61.5,72h2c0.3,0,0.5,0.2,0.5,0.5s-0.2,0.5-0.5,0.5h-2c-0.3,0-0.5-0.2-0.5-0.5
	S-61.8,72-61.5,72z M-54.5,67h12c0.3,0,0.5,0.2,0.5,0.5s-0.2,0.5-0.5,0.5h-12c-0.3,0-0.5-0.2-0.5-0.5S-54.8,67-54.5,67z M-49.5,64h7
	c0.3,0,0.5,0.2,0.5,0.5s-0.2,0.5-0.5,0.5h-7c-0.3,0-0.5-0.2-0.5-0.5S-49.8,64-49.5,64z M-54.5,64h3c0.3,0,0.5,0.2,0.5,0.5
	s-0.2,0.5-0.5,0.5h-3c-0.3,0-0.5-0.2-0.5-0.5S-54.8,64-54.5,64z M-61.5,63c-0.3,0-0.5,0.2-0.5,0.5v5c0,0.3,0.2,0.5,0.5,0.5h4
	c0.3,0,0.5-0.2,0.5-0.5v-5c0-0.3-0.2-0.5-0.5-0.5H-61.5z M-61,64h3v4h-3V64z M-62.5,61c-0.8,0-1.5,0.7-1.5,1.5v13
	c0,0.8,0.7,1.5,1.5,1.5h22c0.8,0,1.5-0.7,1.5-1.5v-13c0-0.8-0.7-1.5-1.5-1.5H-62.5z M-62.5,62h22c0.3,0,0.5,0.2,0.5,0.5v13
	c0,0.3-0.2,0.5-0.5,0.5h-22c-0.3,0-0.5-0.2-0.5-0.5v-13C-63,62.2-62.8,62-62.5,62z M-67.5,55c-0.8,0-1.5,0.7-1.5,1.5v13
	c0,0.8,0.7,1.5,1.5,1.5h2c0.7,0,0.7-1,0-1h-2c-0.3,0-0.5-0.2-0.5-0.5V63h1.5c0.3,0,0.5-0.2,0.5-0.5s-0.2-0.5-0.5-0.5H-68v-3h24v0.5
	c0,0.7,1,0.7,1,0v-3c0-0.8-0.7-1.5-1.5-1.5H-67.5z M-67.5,56h23c0.3,0,0.5,0.2,0.5,0.5V58h-24v-1.5C-68,56.2-67.8,56-67.5,56z"/>
</svg>
