<svg id="Слой_1" data-name="Слой 1" xmlns="http://www.w3.org/2000/svg" viewBox="0 0 24 24"><defs><style>.cls-1{fill:none;}.cls-2{fill:#1083ff;}</style></defs><path class="cls-1" d="M0,0H24V24H0Z"/><path class="cls-2" d="M18,20a3,3,0,1,1,3-3A3,3,0,0,1,18,20Zm0-4a1,1,0,1,0,1,1A1,1,0,0,0,18,16Z"/><path class="cls-2" d="M6,20a3,3,0,1,1,3-3A3,3,0,0,1,6,20Zm0-4a1,1,0,1,0,1,1A1,1,0,0,0,6,16Z"/><path class="cls-2" d="M13,18H8a1,1,0,0,1,0-2h4.2A6.91,6.91,0,0,1,17,11.2V7a1,1,0,0,0-1-1H15a1,1,0,0,1,0-2h1a3,3,0,0,1,3,3v5a1,1,0,0,1-.85,1A4.94,4.94,0,0,0,14,17.15,1,1,0,0,1,13,18Z"/></svg>