<?xml version="1.0" encoding="utf-8"?>
<!-- Generator: Adobe Illustrator 19.0.0, SVG Export Plug-In . SVG Version: 6.00 Build 0)  -->
<svg version="1.1" id="Capa_1" xmlns="http://www.w3.org/2000/svg" xmlns:xlink="http://www.w3.org/1999/xlink" x="0px" y="0px"
	 viewBox="311 -331 792 792" style="enable-background:new 311 -331 792 792;" xml:space="preserve">
<style type="text/css">
	.st0{fill:#1083FF;}
</style>
<g>
	<path class="st0" d="M891.1-331H522.9c-19.6,0-35.5,15.9-35.5,35.6v720.9c0,19.6,16,35.5,35.5,35.5h368.3c19.6,0,35.5-16,35.5-35.5
		v-720.9C926.7-315.1,910.7-331,891.1-331z M746.2,374.8c0,21.6-17.7,39.2-39.1,39.2c-21.6,0-39.2-17.6-39.2-39.1
		c0-21.6,17.5-39.1,39.1-39.2C728.6,335.7,746.2,353.3,746.2,374.8z M887,303H527v-558.3h360L887,303z"/>
</g>
</svg>
