<?xml version="1.0" encoding="utf-8"?>
<!-- Generator: Adobe Illustrator 19.0.0, SVG Export Plug-In . SVG Version: 6.00 Build 0)  -->
<svg version="1.1" id="Слой_1" xmlns:serif="http://www.serif.com/"
	 xmlns="http://www.w3.org/2000/svg" xmlns:xlink="http://www.w3.org/1999/xlink" x="0px" y="0px" viewBox="0 0 170 130"
	 style="enable-background:new 0 0 170 130;" xml:space="preserve">
<style type="text/css">
	.st0{fill:none;}
	.st1{fill:#1083FF;}
</style>
<rect id="Icons" x="-370" y="-650" class="st0" width="2600" height="1625"/>
<g id="Icons1" serif:id="Icons">
	<g id="Strike">
	</g>
	<g id="H1">
	</g>
	<g id="H2">
	</g>
	<g id="H3">
	</g>
	<g id="list-ul">
	</g>
	<g id="hamburger-1">
	</g>
	<g id="hamburger-2">
	</g>
	<g id="list-ol">
	</g>
	<g id="list-task">
	</g>
	<g id="trash">
	</g>
	<g id="vertical-menu">
	</g>
	<g id="horizontal-menu">
	</g>
	<g id="sidebar-2">
	</g>
	<g id="Pen">
	</g>
	<g id="Pen1" serif:id="Pen">
	</g>
	<g id="clock">
	</g>
	<g id="external-link">
	</g>
	<g id="hr">
	</g>
	<g id="info">
	</g>
	<g id="warning">
	</g>
	<g id="plus-circle">
	</g>
	<g id="minus-circle">
	</g>
	<g id="vue">
	</g>
	<g id="cog">
	</g>
	<g id="logo">
	</g>
	<g id="eye-slash">
	</g>
	<g id="eye">
	</g>
	<g id="toggle-off">
	</g>
	<g>
		<path class="st1" d="M87.6,43.6c0-1.4-1.2-2.6-2.6-2.6s-2.6,1.2-2.6,2.6v31.4c0,1.4,1.2,2.6,2.6,2.6s2.6-1.2,2.6-2.6
			C87.6,75.1,87.6,43.6,87.6,43.6z"/>
	</g>
	<g id="shredder">
	</g>
	<g id="spinner--loading--dots-" serif:id="spinner [loading, dots]">
	</g>
	<g id="react">
	</g>
	<path class="st1" d="M95.4,49.8c10.4,4.1,17.7,14.3,17.7,26.1c0,15.5-12.6,28.1-28.1,28.1S56.9,91.4,56.9,75.9
		c0-11.8,7.3-21.9,17.5-26v5.7c-7.4,3.8-12.4,11.5-12.4,20.4c0,12.7,10.3,22.9,22.9,22.9s22.9-10.3,22.9-22.9
		c0-8.9-5.1-16.6-12.5-20.4C95.4,55.5,95.4,49.8,95.4,49.8z"/>
</g>
<g>
	<path class="st1" d="M34.8,110.2V55.8h8.4v54.4c0,2.3,1.9,4.2,4.2,4.2h75.3c2.3,0,4.2-1.9,4.2-4.2V55.8h8.4v54.4
		c0,6.9-5.6,12.6-12.6,12.6H47.3C40.4,122.7,34.8,117.1,34.8,110.2z"/>
	<path class="st1" d="M79.1,9.7c3.3-3.3,8.6-3.3,11.8,0l55.6,55.6c1.6,1.6,1.6,4.3,0,5.9c-1.6,1.6-4.3,1.6-5.9,0L85,15.6L29.4,71.3
		c-1.6,1.6-4.3,1.6-5.9,0s-1.6-4.3,0-5.9L79.1,9.7z"/>
</g>
</svg>
