<?xml version="1.0" encoding="utf-8"?>
<!-- Generator: Adobe Illustrator 19.0.0, SVG Export Plug-In . SVG Version: 6.00 Build 0)  -->
<svg version="1.1" id="screen" xmlns="http://www.w3.org/2000/svg" xmlns:xlink="http://www.w3.org/1999/xlink" x="0px" y="0px"
	 viewBox="420 -341 1010 812" style="enable-background:new 420 -341 1010 812;" xml:space="preserve">
<style type="text/css">
	.st0{fill:#1083FF;}
</style>
<g id="screen-screen">
	<path class="st0" d="M782.1,433.8l-13.3,28.7c0,0,1.4,8.5,7,8.5c5.6,0,317,0,322.6,0c5.6,0,5.6-8.5,5.6-8.5l-13.4-28.7H782.1z"/>
	<rect x="781.3" y="372.6" class="st0" width="308.6" height="54.1"/>
	<path class="st0" d="M1402-341H448.1c-15.5,0-28.1,12.6-28.1,28.1V249v13.1v65.8c0,17.3,12.6,31.5,28.1,31.5H1402
		c15.4,0,28-14.2,28-31.5v-65.8V249v-561.9C1430-328.4,1417.4-341,1402-341z M1371.4,234.1h-895v-505.3h895V234.1L1371.4,234.1z"/>
</g>
</svg>
