<?xml version="1.0" encoding="utf-8"?>
<!-- Generator: Adobe Illustrator 19.0.0, SVG Export Plug-In . SVG Version: 6.00 Build 0)  -->
<svg version="1.1" id="Слой_1" xmlns="http://www.w3.org/2000/svg" xmlns:xlink="http://www.w3.org/1999/xlink" x="0px" y="0px"
	 viewBox="-56 38 56 56" style="enable-background:new -56 38 56 56;" xml:space="preserve">
<style type="text/css">
	.st0{fill:none;}
	.st1{fill:#1083FF;}
</style>
<title>Icons 56/goods_collection_56</title>
<desc>Created with Sketch.</desc>
<rect x="-56" y="38" class="st0" width="56" height="56"/>
<path id="_x21B3_-Icon-Color" class="st1" d="M-8.3,64.5c1.2,0,1.9,0.1,2.6,0.5s1.2,0.9,1.6,1.6c0.4,0.7,0.5,1.4,0.5,2.6v12
	c0,2.1-0.2,3.1-0.8,4.2c-0.5,1-1.3,1.8-2.3,2.3c-1.1,0.6-2.1,0.8-4.2,0.8h-12.5c-2.1,0-3.1-0.2-4.2-0.8c-1-0.5-1.8-1.3-2.3-2.3
	s-0.8-2-0.8-3.8V69.2c0-1.2,0.1-1.9,0.5-2.6s0.9-1.2,1.6-1.6s1.4-0.5,2.6-0.5C-26,64.5-8.3,64.5-8.3,64.5z M-33.1,43.5
	c5.6,0,10.2,4.4,10.5,10h1.1c2.3,0,3.4,0.2,4.6,0.8c1.1,0.6,1.9,1.4,2.5,2.5c0.3,0.6,0.5,1.5,0.8,2.9c0.1,0.8-0.4,1.6-1.3,1.7
	s-1.6-0.4-1.7-1.3c-0.2-1-0.3-1.7-0.4-1.9c-0.3-0.6-0.7-1-1.3-1.3s-1.2-0.5-2.6-0.5l0,0h-0.5h-23.2c-1.8,0-2.5,0.1-3.1,0.5
	c-0.6,0.3-1,0.7-1.3,1.3c-0.4,0.7-0.5,1.3-0.5,3.1l0,0v12.2c0,3.5,0.3,5,1.2,6.6c0.7,1.4,1.8,2.4,3.2,3.2c1.6,0.9,3.2,1.2,7,1.2l0,0
	h3.1c0.8,0,1.5,0.7,1.5,1.5s-0.7,1.5-1.5,1.5l0,0h-3.1c-4.3,0-6.3-0.4-8.4-1.5c-1.9-1-3.4-2.5-4.4-4.4c-1.1-2.1-1.5-4.1-1.5-8.4l0,0
	V61c0-2,0.2-3.1,0.8-4.2c0.6-1.1,1.4-1.9,2.5-2.5c1.2-0.6,2.3-0.8,4.6-0.8l0,0h1.1C-43.3,47.9-38.7,43.5-33.1,43.5z M-8.1,67.5H-26
	h-0.3c-0.3,0-0.5,0-0.6,0.1H-27c-0.1,0.1-0.3,0.2-0.3,0.3V68c-0.3,0.3-0.3,0.5-0.3,1v12.2c0,1.6,0.1,2.2,0.4,2.8
	c0.3,0.5,0.6,0.8,1.1,1.1c0.5,0.3,1,0.4,2.2,0.4h0.5h12.5h0.5c1.2,0,1.7-0.1,2.2-0.4s0.8-0.6,1.1-1.1c0.3-0.5,0.4-1,0.4-2.2v-0.5
	L-6.6,69v-0.3c0-0.3,0-0.5-0.1-0.6V68c-0.1-0.1-0.2-0.3-0.3-0.3h-0.1C-7.4,67.5-7.6,67.5-8.1,67.5z M-11.9,70.6
	c0.8,0,1.5,0.7,1.5,1.5v0.1c0,3.6-3,6.4-6.6,6.4h-0.2c-3.7,0-6.6-2.9-6.6-6.4c0-0.8,0.7-1.5,1.5-1.5s1.5,0.7,1.5,1.5
	c0,1.9,1.6,3.4,3.6,3.4h0.2c2,0,3.6-1.6,3.6-3.4v-0.1C-13.4,71.2-12.7,70.6-11.9,70.6z M-33.1,46.5c-4,0-7.2,3.1-7.5,7h15
	C-25.9,49.6-29.1,46.5-33.1,46.5z"/>
</svg>
