<?xml version="1.0" encoding="utf-8"?>
<!-- Generator: Adobe Illustrator 19.0.0, SVG Export Plug-In . SVG Version: 6.00 Build 0)  -->
<svg version="1.1" id="Слой_1" xmlns="http://www.w3.org/2000/svg" xmlns:xlink="http://www.w3.org/1999/xlink" x="0px" y="0px"
	 viewBox="-68 50 32 32" style="enable-background:new -68 50 32 32;" xml:space="preserve">
<style type="text/css">
	.st0{fill:#1083FF;}
</style>
<path class="st0" d="M-41.4,76.7c-0.2,0-0.4-0.2-0.4-0.4V55.8c0-0.2,0.2-0.4,0.4-0.4h4.9c0.2,0,0.4,0.2,0.4,0.4v20.5
	c0,0.2-0.2,0.4-0.4,0.4H-41.4z M-49.7,76.7c0,0-0.4-0.1-0.4-0.4V63.7c0.1-1.7-1.3-3-2.9-3h-9.3c-0.5,0-0.4,0.4-0.4,0.4v15.2
	c0,0.4-0.4,0.4-0.4,0.4h-4.5c-0.2,0-0.4-0.2-0.4-0.4V55.8c0-0.2,0.2-0.4,0.4-0.4h17.2c3.1,0,5.7,2.6,5.7,5.7l0,15.2
	c0,0.2-0.2,0.4-0.4,0.4L-49.7,76.7z M-58.9,76.7c-0.2,0-0.4-0.2-0.4-0.4v-12c0-0.2,0.2-0.4,0.4-0.4h5c0.2,0,0.4,0.2,0.4,0.4v12
	c0,0.2-0.2,0.4-0.4,0.4H-58.9z"/>
</svg>
