<?xml version="1.0" encoding="utf-8"?>
<!-- Generator: Adobe Illustrator 19.0.0, SVG Export Plug-In . SVG Version: 6.00 Build 0)  -->
<svg version="1.1" id="Слой_1" xmlns="http://www.w3.org/2000/svg" xmlns:xlink="http://www.w3.org/1999/xlink" x="0px" y="0px"
	 viewBox="-72 54 24 24" style="enable-background:new -72 54 24 24;" xml:space="preserve">
<style type="text/css">
	.st0{fill:#FFFFFF;}
</style>
<path class="st0" d="M-53,61.2c1.2,0.4,2,1.5,2,2.8s-0.8,2.4-2,2.8V73c0,0.6-0.4,1-1,1s-1-0.4-1-1v-6.2c-1.2-0.4-2-1.5-2-2.8
	s0.8-2.4,2-2.8V59c0-0.6,0.4-1,1-1s1,0.4,1,1V61.2z M-57,69c0,1.3-0.8,2.4-2,2.8V73c0,0.6-0.4,1-1,1s-1-0.4-1-1v-1.2
	c-1.2-0.4-2-1.5-2-2.8s0.8-2.4,2-2.8V59c0-0.6,0.4-1,1-1s1,0.4,1,1v7.2C-57.8,66.6-57,67.7-57,69z M-65,61.2c1.2,0.4,2,1.5,2,2.8
	s-0.8,2.4-2,2.8V73c0,0.6-0.4,1-1,1s-1-0.4-1-1v-6.2c-1.2-0.4-2-1.5-2-2.8s0.8-2.4,2-2.8V59c0-0.6,0.4-1,1-1s1,0.4,1,1V61.2z
	 M-66,65c0.6,0,1-0.4,1-1s-0.4-1-1-1s-1,0.4-1,1S-66.6,65-66,65z M-54,65c0.6,0,1-0.4,1-1s-0.4-1-1-1s-1,0.4-1,1S-54.6,65-54,65z
	 M-60,70c0.6,0,1-0.4,1-1s-0.4-1-1-1s-1,0.4-1,1S-60.6,70-60,70z"/>
</svg>
